<svg xmlns="http://www.w3.org/2000/svg" width="81" height="60"><svg width="81" height="60" style="vertical-align:middle" viewBox="0 0 81 60" fill="none" xmlns="http://www.w3.org/2000/svg"><path d="m35.606 29.23-13.087-9.554 12.34 20.6L80.998 2.21 35.607 29.23ZM29.99 54.492c-13.59 0-24.607-10.995-24.607-24.559 0-13.563 11.017-24.56 24.607-24.56 6.018 0 11.529 2.16 15.804 5.74l3.45-4.108A29.888 29.888 0 0 0 29.992 0C13.453 0 0 13.428 0 29.933s13.454 29.933 29.991 29.933c8.577 0 16.318-3.617 21.79-9.396l-3.904-3.68c-4.486 4.74-10.838 7.702-17.886 7.702Zm0-7.118c-9.65 0-17.474-7.809-17.474-17.44 0-9.633 7.823-17.442 17.474-17.442 4.274 0 8.185 1.536 11.221 4.079l2.59-3.084a21.437 21.437 0 0 0-13.81-5.025c-11.863 0-21.514 9.632-21.514 21.471 0 11.84 9.651 21.471 21.514 21.471 6.151 0 11.704-2.595 15.628-6.74l-2.936-2.767c-3.186 3.365-7.687 5.477-12.692 5.477Z" fill="#236BFD"/></svg><style>@media (prefers-color-scheme:light){:root{filter:none}}</style></svg>