<?xml version="1.0" standalone="no"?>
<!DOCTYPE svg PUBLIC "-//W3C//DTD SVG 20010904//EN"
 "http://www.w3.org/TR/2001/REC-SVG-20010904/DTD/svg10.dtd">
<svg version="1.0" xmlns="http://www.w3.org/2000/svg"
 width="1024.000000pt" height="1024.000000pt" viewBox="0 0 1024.000000 1024.000000"
 preserveAspectRatio="xMidYMid meet">
<metadata>
Created by potrace 1.11, written by Peter Selinger 2001-2013
</metadata>
<g transform="translate(0.000000,1024.000000) scale(0.100000,-0.100000)"
fill="#000000" stroke="none">
<path d="M3445 8904 c-66 -7 -138 -15 -160 -18 -22 -3 -59 -8 -81 -11 -23 -3
-53 -8 -65 -10 -13 -3 -40 -8 -59 -11 -43 -8 -63 -12 -92 -20 -13 -3 -35 -7
-49 -10 -15 -3 -89 -23 -165 -45 -148 -42 -151 -43 -174 -52 -8 -3 -53 -18
-100 -34 -47 -15 -86 -31 -88 -35 -2 -5 -10 -8 -18 -8 -8 0 -34 -9 -57 -19
-23 -11 -69 -31 -102 -46 -96 -42 -190 -89 -193 -97 -2 -5 -12 -8 -22 -8 -9 0
-23 -7 -30 -15 -7 -8 -17 -15 -22 -15 -13 0 -199 -114 -313 -192 -125 -86
-159 -110 -265 -198 -30 -25 -63 -52 -73 -60 -63 -51 -226 -211 -314 -306 -75
-82 -85 -94 -143 -164 -19 -24 -40 -48 -46 -54 -21 -22 -197 -272 -207 -293
-6 -13 -13 -23 -17 -23 -4 0 -10 -8 -14 -17 -3 -10 -11 -27 -18 -38 -29 -44
-75 -122 -90 -150 -108 -211 -201 -413 -223 -485 -4 -14 -13 -38 -20 -55 -15
-36 -66 -189 -70 -213 -2 -9 -4 -17 -5 -17 -1 0 -3 -7 -5 -15 -7 -30 -14 -56
-30 -110 -8 -30 -17 -67 -20 -83 -3 -15 -12 -59 -20 -97 -17 -82 -22 -111 -30
-165 -2 -22 -7 -53 -10 -68 -3 -15 -7 -51 -10 -80 -2 -29 -5 -52 -5 -52 -13 0
-19 -582 -7 -705 4 -41 14 -127 22 -190 20 -143 21 -146 31 -195 4 -22 8 -44
9 -50 1 -5 4 -21 8 -35 4 -14 9 -36 12 -50 11 -55 24 -109 44 -180 12 -41 23
-82 25 -90 10 -38 99 -284 118 -327 12 -26 23 -50 23 -53 14 -53 157 -328 270
-518 56 -94 236 -341 308 -423 12 -14 45 -51 72 -83 117 -136 446 -446 474
-446 6 0 11 -3 11 -8 0 -10 114 -95 235 -176 55 -36 105 -71 112 -76 7 -6 15
-10 18 -10 3 0 31 -16 61 -35 157 -101 548 -282 714 -330 8 -2 53 -16 100 -30
47 -15 112 -33 145 -41 33 -9 67 -18 75 -21 8 -3 24 -8 35 -10 11 -1 43 -8 70
-14 82 -17 266 -48 330 -55 33 -3 68 -8 77 -9 69 -13 456 -24 504 -14 18 4 38
3 45 -2 7 -4 18 -5 24 -1 5 3 33 7 60 9 28 1 75 5 105 8 30 3 78 8 105 10 28
3 59 7 70 9 11 2 40 7 65 10 25 4 65 11 90 17 25 5 59 12 75 14 17 2 30 4 30
5 0 2 18 6 60 14 49 9 303 83 395 115 186 64 460 190 635 291 101 58 257 159
265 170 3 4 19 14 35 23 37 19 245 184 340 270 87 78 225 215 225 224 0 3 -21
26 -47 51 -131 122 -351 330 -378 357 -65 63 -58 64 -128 -6 -74 -75 -144
-139 -212 -194 -28 -22 -52 -43 -55 -46 -3 -3 -32 -25 -65 -50 -33 -24 -61
-47 -63 -51 -2 -5 -8 -8 -13 -8 -5 0 -39 -21 -76 -48 -38 -26 -79 -53 -93 -60
-14 -7 -43 -23 -65 -36 -22 -13 -60 -34 -85 -48 -25 -13 -52 -28 -60 -33 -8
-5 -17 -10 -20 -11 -3 0 -39 -17 -80 -36 -172 -83 -367 -151 -580 -204 -8 -2
-33 -8 -55 -14 -22 -5 -56 -12 -75 -15 -19 -3 -44 -7 -55 -9 -84 -16 -248 -37
-330 -41 -321 -19 -636 7 -926 75 -26 6 -53 13 -60 14 -51 10 -283 86 -369
121 -30 12 -64 26 -75 30 -11 5 -23 7 -27 7 -5 -1 -8 2 -8 8 0 5 -7 10 -15 10
-19 0 -283 135 -307 157 -10 9 -18 13 -18 9 0 -4 -6 -2 -13 4 -6 6 -54 39
-106 73 -151 99 -149 98 -276 201 -135 111 -368 347 -424 430 -8 11 -22 28
-30 36 -9 8 -20 23 -26 31 -5 9 -37 54 -70 100 -177 244 -330 549 -425 844
-17 55 -33 107 -35 115 -2 8 -13 53 -25 100 -12 47 -24 94 -26 105 -2 11 -6
31 -9 45 -3 14 -7 41 -10 60 -2 19 -6 44 -9 55 -2 11 -7 49 -11 85 -4 36 -9
79 -12 95 -8 59 -10 472 -3 540 5 39 11 97 14 130 3 33 8 71 11 85 2 14 7 41
9 60 5 34 8 53 22 115 4 17 8 39 10 50 2 11 11 47 20 80 9 33 17 65 18 70 7
32 61 197 90 272 42 109 153 351 166 363 4 3 15 23 26 45 44 87 187 303 260
393 24 30 44 58 44 64 0 5 4 7 9 3 5 -3 13 4 16 16 8 23 305 326 374 380 24
19 48 39 55 44 43 38 149 117 221 165 72 48 244 150 253 150 6 0 12 3 14 8 2
6 152 84 168 87 3 1 28 12 55 24 59 27 156 64 240 93 33 11 67 22 75 25 35 14
268 73 310 79 19 3 51 9 70 14 19 5 60 12 90 16 30 4 66 8 80 10 211 30 633
24 850 -12 19 -3 46 -7 60 -9 14 -2 59 -11 100 -20 79 -17 79 -17 150 -34 65
-15 301 -93 395 -131 101 -40 291 -133 372 -182 35 -21 67 -38 73 -38 5 0 10
-3 10 -7 0 -5 27 -24 60 -43 33 -19 60 -38 60 -42 0 -5 5 -8 11 -8 7 0 31 -16
55 -35 23 -19 47 -35 53 -35 6 0 11 -4 11 -9 0 -5 15 -19 33 -30 17 -11 44
-31 58 -45 l27 -25 64 77 c90 108 111 132 128 151 8 9 31 37 51 61 20 25 47
56 58 70 122 140 149 180 120 180 -7 0 -19 8 -28 18 -23 25 -191 149 -296 219
-382 254 -842 451 -1255 539 -14 2 -33 7 -42 10 -10 3 -30 7 -45 10 -16 2 -39
7 -53 9 -65 14 -107 20 -185 29 -16 2 -51 7 -76 11 -98 14 -153 16 -404 19
-160 2 -306 -2 -380 -10z"/>
<path d="M10147 8585 c-32 -19 -60 -35 -63 -35 -3 0 -10 -5 -17 -10 -20 -17
-129 -80 -138 -80 -5 0 -9 -4 -9 -9 0 -5 -8 -12 -17 -15 -10 -3 -27 -12 -38
-19 -11 -7 -54 -32 -95 -56 -41 -24 -98 -59 -127 -77 -28 -19 -54 -34 -56 -34
-3 0 -42 -22 -86 -50 -44 -27 -85 -50 -91 -50 -5 0 -10 -4 -10 -10 0 -5 -6
-10 -14 -10 -8 0 -21 -6 -28 -12 -13 -12 -28 -22 -83 -52 -10 -6 -25 -17 -33
-23 -7 -7 -18 -13 -24 -13 -5 0 -33 -15 -61 -34 -29 -19 -64 -40 -79 -47 -16
-7 -28 -16 -28 -21 0 -4 -4 -8 -9 -8 -5 0 -123 -68 -262 -151 -140 -84 -267
-160 -284 -169 -16 -10 -144 -85 -283 -169 -138 -83 -257 -151 -262 -151 -6 0
-10 -4 -10 -10 0 -5 -4 -10 -8 -10 -4 0 -127 -71 -273 -158 -756 -453 -965
-577 -976 -580 -7 -2 -13 -8 -13 -14 0 -6 -3 -8 -7 -5 -3 4 -13 1 -22 -6 -13
-12 -155 -97 -276 -167 -16 -10 -122 -73 -235 -140 -113 -68 -218 -130 -235
-140 -16 -9 -83 -49 -148 -89 -65 -39 -122 -71 -127 -71 -6 0 -10 -4 -10 -10
0 -5 -11 -12 -25 -16 -14 -3 -25 -10 -25 -15 0 -5 -4 -9 -9 -9 -8 0 -112 -60
-191 -110 -21 -13 -121 -72 -145 -85 -28 -16 -123 -74 -165 -100 -99 -63 -513
-305 -521 -305 -5 0 -9 -4 -9 -10 0 -5 -5 -10 -10 -10 -8 0 -125 80 -165 113
-5 4 -100 73 -210 153 -110 79 -207 150 -215 157 -8 7 -31 23 -50 37 -19 13
-40 29 -47 35 -35 30 -43 35 -48 35 -2 0 -40 26 -82 58 -43 32 -114 85 -158
117 -44 32 -106 78 -138 102 -31 24 -61 43 -66 43 -5 0 -11 3 -13 8 -1 4 -32
28 -68 54 -36 26 -69 51 -75 55 -5 5 -35 26 -65 48 -30 22 -59 43 -65 47 -5 5
-37 28 -70 52 -33 25 -72 54 -87 66 -20 15 -28 18 -28 8 0 -8 4 -18 10 -24 15
-15 80 -125 80 -135 0 -5 5 -9 10 -9 6 0 10 -5 10 -11 0 -6 32 -63 70 -127 39
-64 75 -124 80 -132 5 -8 54 -90 109 -182 56 -92 101 -170 101 -174 0 -3 10
-20 23 -37 12 -18 27 -41 34 -52 6 -11 36 -60 65 -109 64 -108 74 -125 118
-199 19 -32 43 -71 52 -85 10 -15 22 -36 28 -47 5 -11 21 -38 35 -60 13 -22
34 -58 46 -80 12 -22 25 -42 29 -45 4 -3 24 -35 44 -72 21 -37 42 -70 47 -74
5 -3 9 -14 9 -24 0 -10 4 -20 8 -22 5 -1 26 -32 47 -68 21 -36 57 -94 79 -130
22 -36 45 -74 51 -85 11 -21 67 -115 100 -170 11 -18 74 -123 140 -233 127
-212 123 -208 170 -165 11 10 58 50 105 88 47 39 90 74 96 80 6 5 30 26 54 45
98 79 176 144 195 161 11 10 58 49 105 86 47 37 90 73 96 78 12 11 34 30 259
215 88 73 180 149 205 170 25 21 65 55 90 75 69 56 132 108 149 125 9 8 32 26
51 40 19 14 42 32 50 40 9 8 36 31 61 51 190 156 305 253 307 260 2 5 8 9 14
9 5 0 15 6 22 13 12 11 81 70 130 109 11 10 28 23 36 31 8 7 78 65 155 127 77
63 142 117 145 120 3 3 30 25 60 50 30 25 57 47 60 50 3 3 79 66 170 139 91
74 170 139 175 145 6 6 30 27 55 46 25 19 51 40 58 47 7 7 34 29 60 50 26 21
49 40 52 43 3 3 82 69 175 145 94 77 175 144 181 150 6 5 31 26 55 46 24 20
101 83 170 140 69 57 144 119 167 137 23 19 50 42 62 52 12 10 39 33 62 52
114 92 234 192 238 198 3 3 31 26 63 49 31 24 57 46 57 50 0 3 17 17 37 31 20
14 48 35 62 48 13 12 38 33 54 45 16 12 36 29 45 37 10 9 55 47 102 85 92 76
126 104 144 120 6 6 47 39 91 75 44 35 82 67 85 70 3 3 30 25 60 50 30 25 57
47 60 50 3 3 41 34 85 69 44 35 85 69 90 75 6 6 44 38 85 71 41 32 80 64 86
70 6 5 28 24 48 40 21 17 48 38 60 49 11 10 41 35 66 55 25 20 47 38 50 41 3
3 43 36 90 74 136 111 141 118 47 61z"/>
<path d="M3570 7840 c0 -3 -15 -5 -32 -6 -60 -1 -175 -17 -278 -40 -36 -7 -78
-16 -94 -19 -16 -2 -54 -12 -85 -21 -31 -9 -60 -17 -66 -19 -38 -8 -71 -19
-80 -25 -5 -3 -37 -15 -70 -25 -33 -11 -65 -23 -71 -27 -7 -5 -20 -10 -30 -12
-58 -12 -399 -194 -491 -262 -17 -13 -34 -24 -37 -24 -3 0 -15 -8 -25 -17 -11
-10 -41 -34 -68 -53 -26 -19 -53 -39 -59 -45 -6 -5 -40 -35 -75 -65 -137 -118
-319 -314 -405 -436 -75 -106 -94 -135 -94 -144 0 -5 -4 -10 -9 -10 -5 0 -13
-9 -16 -20 -3 -11 -12 -26 -18 -33 -14 -15 -19 -23 -84 -147 -42 -79 -75 -153
-153 -345 -5 -11 -18 -51 -30 -90 -11 -38 -25 -83 -30 -100 -20 -65 -53 -222
-65 -305 -3 -25 -8 -52 -10 -60 -11 -43 -19 -196 -18 -365 0 -201 5 -285 22
-381 5 -32 12 -72 14 -89 3 -16 8 -41 11 -55 3 -14 8 -36 11 -50 4 -22 13 -61
29 -128 2 -12 7 -26 10 -30 3 -5 7 -19 10 -33 4 -25 79 -238 95 -274 5 -11 22
-47 37 -80 15 -33 29 -66 30 -74 2 -8 6 -17 11 -20 4 -3 15 -19 22 -36 40 -83
150 -261 198 -321 18 -23 33 -46 33 -52 0 -6 3 -12 8 -14 4 -1 20 -19 35 -38
84 -103 110 -133 202 -226 127 -130 231 -218 375 -320 171 -121 368 -228 561
-304 113 -46 330 -112 409 -126 14 -3 32 -7 40 -9 8 -3 33 -7 55 -10 22 -4 51
-9 65 -11 134 -28 554 -40 713 -21 118 14 152 18 172 24 11 3 31 7 45 9 143
17 431 107 610 192 41 20 77 36 80 37 65 20 408 231 418 257 2 4 8 8 14 8 23
0 348 290 348 310 0 7 -52 59 -180 180 -36 34 -91 87 -123 117 l-58 56 -31
-29 c-96 -91 -119 -112 -159 -146 -76 -64 -102 -83 -189 -141 -47 -31 -89 -60
-95 -65 -13 -10 -260 -133 -300 -149 -103 -41 -135 -52 -135 -47 0 4 -6 2 -12
-3 -7 -6 -26 -14 -43 -18 -45 -12 -45 -12 -47 -15 -2 -1 -10 -3 -18 -5 -8 -2
-37 -9 -65 -15 -27 -7 -59 -14 -70 -16 -11 -1 -29 -5 -41 -8 -12 -2 -45 -7
-74 -11 -29 -4 -62 -9 -74 -11 -21 -4 -227 -16 -276 -16 -163 2 -299 20 -515
67 -11 3 -58 16 -105 31 -47 14 -95 28 -107 31 -13 3 -23 10 -23 15 0 5 -4 7
-8 4 -4 -2 -21 1 -37 9 -17 7 -64 28 -105 46 -41 18 -83 39 -92 47 -10 8 -18
11 -18 7 0 -4 -8 -2 -17 6 -10 8 -29 20 -42 27 -13 8 -39 22 -57 32 -64 37
-213 144 -289 210 -148 129 -346 360 -447 523 -49 78 -134 250 -167 337 -18
47 -36 92 -40 100 -16 31 -78 279 -86 345 -3 22 -8 51 -10 65 -11 52 -18 160
-19 295 -1 199 8 283 50 500 2 11 7 35 10 53 3 17 10 32 16 32 5 0 7 4 4 9 -9
13 50 189 108 323 9 21 16 41 15 44 0 4 3 10 8 13 5 3 18 24 29 46 17 36 74
136 107 190 60 99 198 267 308 375 208 205 386 325 689 463 64 30 269 98 336
112 11 2 53 11 94 20 41 9 93 18 115 20 22 3 67 8 100 12 134 16 425 7 560
-17 55 -9 116 -20 140 -24 6 -1 15 -4 20 -7 6 -4 28 -10 50 -13 98 -18 317
-102 469 -181 123 -63 317 -192 377 -250 15 -14 21 -9 73 52 31 38 67 79 79
93 13 14 52 60 88 103 35 43 74 90 86 105 l22 25 -37 29 c-20 15 -48 37 -62
48 -137 111 -421 275 -615 355 -40 16 -201 74 -220 79 -5 2 -30 9 -55 16 -25
7 -49 15 -55 16 -18 6 -90 23 -115 28 -134 27 -184 36 -235 42 -33 3 -76 8
-95 11 -54 6 -480 10 -480 3z"/>
</g>
</svg>
