<svg version="1.0" xmlns="http://www.w3.org/2000/svg" width="1365.333" height="1365.333" viewBox="0 0 1024 1024"><path d="M344.5 133.6c-6.6.7-13.8 1.5-16 1.8-2.2.3-5.9.8-8.1 1.1-2.3.3-5.3.8-6.5 1-1.3.3-4 .8-5.9 1.1-4.3.8-6.3 1.2-9.2 2-1.3.3-3.5.7-4.9 1-1.5.3-8.9 2.3-16.5 4.5-14.8 4.2-15.1 4.3-17.4 5.2-.8.3-5.3 1.8-10 3.4-4.7 1.5-8.6 3.1-8.8 3.5-.2.5-1 .8-1.8.8s-3.4.9-5.7 1.9c-2.3 1.1-6.9 3.1-10.2 4.6-9.6 4.2-19 8.9-19.3 9.7-.2.5-1.2.8-2.2.8-.9 0-2.3.7-3 1.5-.7.8-1.7 1.5-2.2 1.5-1.3 0-19.9 11.4-31.3 19.2-12.5 8.6-15.9 11-26.5 19.8-3 2.5-6.3 5.2-7.3 6-6.3 5.1-22.6 21.1-31.4 30.6-7.5 8.2-8.5 9.4-14.3 16.4-1.9 2.4-4 4.8-4.6 5.4-2.1 2.2-19.7 27.2-20.7 29.3-.6 1.3-1.3 2.3-1.7 2.3-.4 0-1 .8-1.4 1.7-.3 1-1.1 2.7-1.8 3.8-2.9 4.4-7.5 12.2-9 15C36 349.6 26.7 369.8 24.5 377c-.4 1.4-1.3 3.8-2 5.5-1.5 3.6-6.6 18.9-7 21.3-.2.9-.4 1.7-.5 1.7-.1 0-.3.7-.5 1.5-.7 3-1.4 5.6-3 11-.8 3-1.7 6.7-2 8.3-.3 1.5-1.2 5.9-2 9.7-1.7 8.2-2.2 11.1-3 16.5-.2 2.2-.7 5.3-1 6.8-.3 1.5-.7 5.1-1 8-.2 2.9-.5 5.2-.5 5.2-1.3 0-1.9 58.2-.7 70.5.4 4.1 1.4 12.7 2.2 19 2 14.3 2.1 14.6 3.1 19.5.4 2.2.8 4.4.9 5 .1.5.4 2.1.8 3.5s.9 3.6 1.2 5c1.1 5.5 2.4 10.9 4.4 18 1.2 4.1 2.3 8.2 2.5 9 1 3.8 9.9 28.4 11.8 32.7 1.2 2.6 2.3 5 2.3 5.3 1.4 5.3 15.7 32.8 27 51.8 5.6 9.4 23.6 34.1 30.8 42.3 1.2 1.4 4.5 5.1 7.2 8.3 11.7 13.6 44.6 44.6 47.4 44.6.6 0 1.1.3 1.1.8 0 1 11.4 9.5 23.5 17.6 5.5 3.6 10.5 7.1 11.2 7.6.7.6 1.5 1 1.8 1 .3 0 3.1 1.6 6.1 3.5 15.7 10.1 54.8 28.2 71.4 33 .8.2 5.3 1.6 10 3 4.7 1.5 11.2 3.3 14.5 4.1 3.3.9 6.7 1.8 7.5 2.1.8.3 2.4.8 3.5 1 1.1.1 4.3.8 7 1.4 8.2 1.7 26.6 4.8 33 5.5 3.3.3 6.8.8 7.7.9 6.9 1.3 45.6 2.4 50.4 1.4 1.8-.4 3.8-.3 4.5.2.7.4 1.8.5 2.4.1.5-.3 3.3-.7 6-.9 2.8-.1 7.5-.5 10.5-.8 3-.3 7.8-.8 10.5-1 2.8-.3 5.9-.7 7-.9 1.1-.2 4-.7 6.5-1 2.5-.4 6.5-1.1 9-1.7 2.5-.5 5.9-1.2 7.5-1.4 1.7-.2 3-.4 3-.5 0-.2 1.8-.6 6-1.4 4.9-.9 30.3-8.3 39.5-11.5 18.6-6.4 46-19 63.5-29.1 10.1-5.8 25.7-15.9 26.5-17 .3-.4 1.9-1.4 3.5-2.3 3.7-1.9 24.5-18.4 34-27 8.7-7.8 22.5-21.5 22.5-22.4 0-.3-2.1-2.6-4.7-5.1-13.1-12.2-35.1-33-37.8-35.7-6.5-6.3-5.8-6.4-12.8.6-7.4 7.5-14.4 13.9-21.2 19.4-2.8 2.2-5.2 4.3-5.5 4.6-.3.3-3.2 2.5-6.5 5-3.3 2.4-6.1 4.7-6.3 5.1-.2.5-.8.8-1.3.8s-3.9 2.1-7.6 4.8c-3.8 2.6-7.9 5.3-9.3 6-1.4.7-4.3 2.3-6.5 3.6-2.2 1.3-6 3.4-8.5 4.8-2.5 1.3-5.2 2.8-6 3.3-.8.5-1.7 1-2 1.1-.3 0-3.9 1.7-8 3.6-17.2 8.3-36.7 15.1-58 20.4-.8.2-3.3.8-5.5 1.4-2.2.5-5.6 1.2-7.5 1.5-1.9.3-4.4.7-5.5.9-8.4 1.6-24.8 3.7-33 4.1-32.1 1.9-63.6-.7-92.6-7.5-2.6-.6-5.3-1.3-6-1.4-5.1-1-28.3-8.6-36.9-12.1-3-1.2-6.4-2.6-7.5-3-1.1-.5-2.3-.7-2.7-.7-.5.1-.8-.2-.8-.8 0-.5-.7-1-1.5-1-1.9 0-28.3-13.5-30.7-15.7-1-.9-1.8-1.3-1.8-.9s-.6.2-1.3-.4c-.6-.6-5.4-3.9-10.6-7.3-15.1-9.9-14.9-9.8-27.6-20.1-13.5-11.1-36.8-34.7-42.4-43-.8-1.1-2.2-2.8-3-3.6-.9-.8-2-2.3-2.6-3.1-.5-.9-3.7-5.4-7-10-17.7-24.4-33-54.9-42.5-84.4-1.7-5.5-3.3-10.7-3.5-11.5-.2-.8-1.3-5.3-2.5-10s-2.4-9.4-2.6-10.5c-.2-1.1-.6-3.1-.9-4.5-.3-1.4-.7-4.1-1-6-.2-1.9-.6-4.4-.9-5.5-.2-1.1-.7-4.9-1.1-8.5-.4-3.6-.9-7.9-1.2-9.5-.8-5.9-1-47.2-.3-54 .5-3.9 1.1-9.7 1.4-13 .3-3.3.8-7.1 1.1-8.5.2-1.4.7-4.1.9-6 .5-3.4.8-5.3 2.2-11.5.4-1.7.8-3.9 1-5 .2-1.1 1.1-4.7 2-8 .9-3.3 1.7-6.5 1.8-7 .7-3.2 6.1-19.7 9-27.2 4.2-10.9 15.3-35.1 16.6-36.3.4-.3 1.5-2.3 2.6-4.5 4.4-8.7 18.7-30.3 26-39.3 2.4-3 4.4-5.8 4.4-6.4 0-.5.4-.7.9-.3.5.3 1.3-.4 1.6-1.6.8-2.3 30.5-32.6 37.4-38 2.4-1.9 4.8-3.9 5.5-4.4 4.3-3.8 14.9-11.7 22.1-16.5 7.2-4.8 24.4-15 25.3-15 .6 0 1.2-.3 1.4-.8.2-.6 15.2-8.4 16.8-8.7.3-.1 2.8-1.2 5.5-2.4 5.9-2.7 15.6-6.4 24-9.3 3.3-1.1 6.7-2.2 7.5-2.5 3.5-1.4 26.8-7.3 31-7.9 1.9-.3 5.1-.9 7-1.4 1.9-.5 6-1.2 9-1.6 3-.4 6.6-.8 8-1 21.1-3 63.3-2.4 85 1.2 1.9.3 4.6.7 6 .9 1.4.2 5.9 1.1 10 2 7.9 1.7 7.9 1.7 15 3.4 6.5 1.5 30.1 9.3 39.5 13.1 10.1 4 29.1 13.3 37.2 18.2 3.5 2.1 6.7 3.8 7.3 3.8.5 0 1 .3 1 .7 0 .5 2.7 2.4 6 4.3s6 3.8 6 4.2c0 .5.5.8 1.1.8.7 0 3.1 1.6 5.5 3.5 2.3 1.9 4.7 3.5 5.3 3.5.6 0 1.1.4 1.1.9s1.5 1.9 3.3 3c1.7 1.1 4.4 3.1 5.8 4.5l2.7 2.5 6.4-7.7c9-10.8 11.1-13.2 12.8-15.1.8-.9 3.1-3.7 5.1-6.1 2-2.5 4.7-5.6 5.8-7 12.2-14 14.9-18 12-18-.7 0-1.9-.8-2.8-1.8-2.3-2.5-19.1-14.9-29.6-21.9-38.2-25.4-84.2-45.1-125.5-53.9-1.4-.2-3.3-.7-4.2-1-1-.3-3-.7-4.5-1-1.6-.2-3.9-.7-5.3-.9-6.5-1.4-10.7-2-18.5-2.9-1.6-.2-5.1-.7-7.6-1.1-9.8-1.4-15.3-1.6-40.4-1.9-16-.2-30.6.2-38 1z"/><path d="M1014.7 165.5c-3.2 1.9-6 3.5-6.3 3.5-.3 0-1 .5-1.7 1-2 1.7-12.9 8-13.8 8-.5 0-.9.4-.9.9s-.8 1.2-1.7 1.5c-1 .3-2.7 1.2-3.8 1.9-1.1.7-5.4 3.2-9.5 5.6-4.1 2.4-9.8 5.9-12.7 7.7-2.8 1.9-5.4 3.4-5.6 3.4-.3 0-4.2 2.2-8.6 5-4.4 2.7-8.5 5-9.1 5-.5 0-1 .4-1 1 0 .5-.6 1-1.4 1-.8 0-2.1.6-2.8 1.2-1.3 1.2-2.8 2.2-8.3 5.2-1 .6-2.5 1.7-3.3 2.3-.7.7-1.8 1.3-2.4 1.3-.5 0-3.3 1.5-6.1 3.4-2.9 1.9-6.4 4-7.9 4.7-1.6.7-2.8 1.6-2.8 2.1 0 .4-.4.8-.9.8s-12.3 6.8-26.2 15.1c-14 8.4-26.7 16-28.4 16.9-1.6 1-14.4 8.5-28.3 16.9-13.8 8.3-25.7 15.1-26.2 15.1-.6 0-1 .4-1 1 0 .5-.4 1-.8 1s-12.7 7.1-27.3 15.8c-75.6 45.3-96.5 57.7-97.6 58-.7.2-1.3.8-1.3 1.4 0 .6-.3.8-.7.5-.3-.4-1.3-.1-2.2.6-1.3 1.2-15.5 9.7-27.6 16.7-1.6 1-12.2 7.3-23.5 14-11.3 6.8-21.8 13-23.5 14-1.6.9-8.3 4.9-14.8 8.9-6.5 3.9-12.2 7.1-12.7 7.1-.6 0-1 .4-1 1 0 .5-1.1 1.2-2.5 1.6-1.4.3-2.5 1-2.5 1.5s-.4.9-.9.9c-.8 0-11.2 6-19.1 11-2.1 1.3-12.1 7.2-14.5 8.5-2.8 1.6-12.3 7.4-16.5 10-9.9 6.3-51.3 30.5-52.1 30.5-.5 0-.9.4-.9 1 0 .5-.5 1-1 1-.8 0-12.5-8-16.5-11.3-.5-.4-10-7.3-21-15.3-11-7.9-20.7-15-21.5-15.7-.8-.7-3.1-2.3-5-3.7-1.9-1.3-4-2.9-4.7-3.5-3.5-3-4.3-3.5-4.8-3.5-.2 0-4-2.6-8.2-5.8-4.3-3.2-11.4-8.5-15.8-11.7-4.4-3.2-10.6-7.8-13.8-10.2-3.1-2.4-6.1-4.3-6.6-4.3s-1.1-.3-1.3-.8c-.1-.4-3.2-2.8-6.8-5.4-3.6-2.6-6.9-5.1-7.5-5.5-.5-.5-3.5-2.6-6.5-4.8-3-2.2-5.9-4.3-6.5-4.7-.5-.5-3.7-2.8-7-5.2-3.3-2.5-7.2-5.4-8.7-6.6-2-1.5-2.8-1.8-2.8-.8 0 .8.4 1.8 1 2.4 1.5 1.5 8 12.5 8 13.5 0 .5.5.9 1 .9.6 0 1 .5 1 1.1 0 .6 3.2 6.3 7 12.7 3.9 6.4 7.5 12.4 8 13.2.5.8 5.4 9 10.9 18.2 5.6 9.2 10.1 17 10.1 17.4 0 .3 1 2 2.3 3.7 1.2 1.8 2.7 4.1 3.4 5.2.6 1.1 3.6 6 6.5 10.9 6.4 10.8 7.4 12.5 11.8 19.9 1.9 3.2 4.3 7.1 5.2 8.5 1 1.5 2.2 3.6 2.8 4.7.5 1.1 2.1 3.8 3.5 6 1.3 2.2 3.4 5.8 4.6 8 1.2 2.2 2.5 4.2 2.9 4.5.4.3 2.4 3.5 4.4 7.2 2.1 3.7 4.2 7 4.7 7.4.5.3.9 1.4.9 2.4s.4 2 .8 2.2c.5.1 2.6 3.2 4.7 6.8 2.1 3.6 5.7 9.4 7.9 13 2.2 3.6 4.5 7.4 5.1 8.5 1.1 2.1 6.7 11.5 10 17 1.1 1.8 7.4 12.3 14 23.3 12.7 21.2 12.3 20.8 17 16.5 1.1-1 5.8-5 10.5-8.8 4.7-3.9 9-7.4 9.6-8 .6-.5 3-2.6 5.4-4.5 9.8-7.9 17.6-14.4 19.5-16.1 1.1-1 5.8-4.9 10.5-8.6 4.7-3.7 9-7.3 9.6-7.8 1.2-1.1 3.4-3 25.9-21.5 8.8-7.3 18-14.9 20.5-17 2.5-2.1 6.5-5.5 9-7.5 6.9-5.6 13.2-10.8 14.9-12.5.9-.8 3.2-2.6 5.1-4 1.9-1.4 4.2-3.2 5-4 .9-.8 3.6-3.1 6.1-5.1 19-15.6 30.5-25.3 30.7-26 .2-.5.8-.9 1.4-.9.5 0 1.5-.6 2.2-1.3 1.2-1.1 8.1-7 13-10.9 1.1-1 2.8-2.3 3.6-3.1.8-.7 7.8-6.5 15.5-12.7 7.7-6.3 14.2-11.7 14.5-12 .3-.3 3-2.5 6-5s5.7-4.7 6-5c.3-.3 7.9-6.6 17-13.9 9.1-7.4 17-13.9 17.5-14.5.6-.6 3-2.7 5.5-4.6 2.5-1.9 5.1-4 5.8-4.7.7-.7 3.4-2.9 6-5s4.9-4 5.2-4.3c.3-.3 8.2-6.9 17.5-14.5 9.4-7.7 17.5-14.4 18.1-15 .6-.5 3.1-2.6 5.5-4.6 2.4-2 10.1-8.3 17-14 6.9-5.7 14.4-11.9 16.7-13.7 2.3-1.9 5-4.2 6.2-5.2 1.2-1 3.9-3.3 6.2-5.2 11.4-9.2 23.4-19.2 23.8-19.8.3-.3 3.1-2.6 6.3-4.9 3.1-2.4 5.7-4.6 5.7-5 0-.3 1.7-1.7 3.7-3.1 2-1.4 4.8-3.5 6.2-4.8 1.3-1.2 3.8-3.3 5.4-4.5 1.6-1.2 3.6-2.9 4.5-3.7 1-.9 5.5-4.7 10.2-8.5 9.2-7.6 12.6-10.4 14.4-12 .6-.6 4.7-3.9 9.1-7.5 4.4-3.5 8.2-6.7 8.5-7 .3-.3 3-2.5 6-5s5.7-4.7 6-5c.3-.3 4.1-3.4 8.5-6.9 4.4-3.5 8.5-6.9 9-7.5.6-.6 4.4-3.8 8.5-7.1 4.1-3.2 8-6.4 8.6-7 .6-.5 2.8-2.4 4.8-4 2.1-1.7 4.8-3.8 6-4.9 1.1-1 4.1-3.5 6.6-5.5s4.7-3.8 5-4.1c.3-.3 4.3-3.6 9-7.4 13.6-11.1 14.1-11.8 4.7-6.1z"/><path d="M357 240c0 .3-1.5.5-3.2.6-6 .1-17.5 1.7-27.8 4-3.6.7-7.8 1.6-9.4 1.9-1.6.2-5.4 1.2-8.5 2.1-3.1.9-6 1.7-6.6 1.9-3.8.8-7.1 1.9-8 2.5-.5.3-3.7 1.5-7 2.5-3.3 1.1-6.5 2.3-7.1 2.7-.7.5-2 1-3 1.2-5.8 1.2-39.9 19.4-49.1 26.2-1.7 1.3-3.4 2.4-3.7 2.4-.3 0-1.5.8-2.5 1.7-1.1 1-4.1 3.4-6.8 5.3-2.6 1.9-5.3 3.9-5.9 4.5-.6.5-4 3.5-7.5 6.5-13.7 11.8-31.9 31.4-40.5 43.6-7.5 10.6-9.4 13.5-9.4 14.4 0 .5-.4 1-.9 1s-1.3.9-1.6 2c-.3 1.1-1.2 2.6-1.8 3.3-1.4 1.5-1.9 2.3-8.4 14.7-4.2 7.9-7.5 15.3-15.3 34.5-.5 1.1-1.8 5.1-3 9-1.1 3.8-2.5 8.3-3 10-2 6.5-5.3 22.2-6.5 30.5-.3 2.5-.8 5.2-1 6-1.1 4.3-1.9 19.6-1.8 36.5 0 20.1.5 28.5 2.2 38.1.5 3.2 1.2 7.2 1.4 8.9.3 1.6.8 4.1 1.1 5.5.3 1.4.8 3.6 1.1 5 .4 2.2 1.3 6.1 2.9 12.8.2 1.2.7 2.6 1 3 .3.5.7 1.9 1 3.3.4 2.5 7.9 23.8 9.5 27.4.5 1.1 2.2 4.7 3.7 8s2.9 6.6 3 7.4c.2.8.6 1.7 1.1 2 .4.3 1.5 1.9 2.2 3.6 4 8.3 15 26.1 19.8 32.1 1.8 2.3 3.3 4.6 3.3 5.2 0 .6.3 1.2.8 1.4.4.1 2 1.9 3.5 3.8 8.4 10.3 11 13.3 20.2 22.6 12.7 13 23.1 21.8 37.5 32 17.1 12.1 36.8 22.8 56.1 30.4 11.3 4.6 33 11.2 40.9 12.6 1.4.3 3.2.7 4 .9.8.3 3.3.7 5.5 1 2.2.4 5.1.9 6.5 1.1 13.4 2.8 55.4 4 71.3 2.1 11.8-1.4 15.2-1.8 17.2-2.4 1.1-.3 3.1-.7 4.5-.9 14.3-1.7 43.1-10.7 61-19.2 4.1-2 7.7-3.6 8-3.7 6.5-2 40.8-23.1 41.8-25.7.2-.4.8-.8 1.4-.8 2.3 0 34.8-29 34.8-31 0-.7-5.2-5.9-18-18-3.6-3.4-9.1-8.7-12.3-11.7l-5.8-5.6-3.1 2.9c-9.6 9.1-11.9 11.2-15.9 14.6-7.6 6.4-10.2 8.3-18.9 14.1-4.7 3.1-8.9 6-9.5 6.5-1.3 1-26 13.3-30 14.9-10.3 4.1-13.5 5.2-13.5 4.7 0-.4-.6-.2-1.2.3-.7.6-2.6 1.4-4.3 1.8-4.5 1.2-4.5 1.2-4.7 1.5-.2.1-1 .3-1.8.5s-3.7.9-6.5 1.5c-2.7.7-5.9 1.4-7 1.6-1.1.1-2.9.5-4.1.8-1.2.2-4.5.7-7.4 1.1-2.9.4-6.2.9-7.4 1.1-2.1.4-22.7 1.6-27.6 1.6-16.3-.2-29.9-2-51.5-6.7-1.1-.3-5.8-1.6-10.5-3.1-4.7-1.4-9.5-2.8-10.7-3.1-1.3-.3-2.3-1-2.3-1.5s-.4-.7-.8-.4c-.4.2-2.1-.1-3.7-.9-1.7-.7-6.4-2.8-10.5-4.6-4.1-1.8-8.3-3.9-9.2-4.7-1-.8-1.8-1.1-1.8-.7 0 .4-.8.2-1.7-.6-1-.8-2.9-2-4.2-2.7-1.3-.8-3.9-2.2-5.7-3.2-6.4-3.7-21.3-14.4-28.9-21-14.8-12.9-34.6-36-44.7-52.3-4.9-7.8-13.4-25-16.7-33.7-1.8-4.7-3.6-9.2-4-10-1.6-3.1-7.8-27.9-8.6-34.5-.3-2.2-.8-5.1-1-6.5-1.1-5.2-1.8-16-1.9-29.5-.1-19.9.8-28.3 5-50 .2-1.1.7-3.5 1-5.3.3-1.7 1-3.2 1.6-3.2.5 0 .7-.4.4-.9-.9-1.3 5-18.9 10.8-32.3.9-2.1 1.6-4.1 1.5-4.4 0-.4.3-1 .8-1.3.5-.3 1.8-2.4 2.9-4.6 1.7-3.6 7.4-13.6 10.7-19 6-9.9 19.8-26.7 30.8-37.5 20.8-20.5 38.6-32.5 68.9-46.3 6.4-3 26.9-9.8 33.6-11.2 1.1-.2 5.3-1.1 9.4-2 4.1-.9 9.3-1.8 11.5-2 2.2-.3 6.7-.8 10-1.2 13.4-1.6 42.5-.7 56 1.7 5.5.9 11.6 2 14 2.4.6.1 1.5.4 2 .7.6.4 2.8 1 5 1.3 9.8 1.8 31.7 10.2 46.9 18.1 12.3 6.3 31.7 19.2 37.7 25 1.5 1.4 2.1.9 7.3-5.2 3.1-3.8 6.7-7.9 7.9-9.3 1.3-1.4 5.2-6 8.8-10.3 3.5-4.3 7.4-9 8.6-10.5l2.2-2.5-3.7-2.9c-2-1.5-4.8-3.7-6.2-4.8-13.7-11.1-42.1-27.5-61.5-35.5-4-1.6-20.1-7.4-22-7.9-.5-.2-3-.9-5.5-1.6-2.5-.7-4.9-1.5-5.5-1.6-1.8-.6-9-2.3-11.5-2.8-13.4-2.7-18.4-3.6-23.5-4.2-3.3-.3-7.6-.8-9.5-1.1-5.4-.6-48-1-48-.3z"/></svg>