<svg height="512pt" viewBox="0 0 512 512" width="512pt" xmlns="http://www.w3.org/2000/svg"><path d="M297.277 508.668zm0 0M302.398 507.793c-1.02.187-2.039.36-3.058.535 1.02-.176 2.039-.348 3.058-.535zm0 0M285.137 510.34zm0 0M290.055 509.738zm0 0M309.367 506.41zm0 0M326.664 502.113c-.726.207-1.453.403-2.18.606.727-.203 1.454-.399 2.18-.606zm0 0M321.434 503.543c-.79.207-1.582.418-2.375.617.793-.2 1.586-.406 2.375-.617zm0 0M314.59 505.254c-.836.195-1.68.379-2.524.566.844-.187 1.688-.37 2.524-.566zm0 0M277.527 511.09zm0 0M512 256C512 114.637 397.363 0 256 0S0 114.637 0 256s114.637 256 256 256c1.504 0 3-.031 4.5-.059V312.656h-55V248.56h55V201.39c0-54.703 33.395-84.477 82.191-84.477 23.368 0 43.454 1.742 49.309 2.52v57.171h-33.648c-26.547 0-31.688 12.618-31.688 31.13v40.824h63.477l-8.274 64.097h-55.203V502.11C433.668 471.434 512 372.852 512 256zm0 0M272.914 511.43zm0 0M264.754 511.836zm0 0"/></svg>