<svg version="1.1" id="Layer_1" xmlns="http://www.w3.org/2000/svg" x="0" y="0" viewBox="0 0 84 42" xml:space="preserve"><style>.st0{fill:#f5f5f5}</style><g id="AJzwKZ_8_"><path class="st0" d="M38.6 37.9h3.2c.1 0 .3.1.4.2.8 1.2 2.2 1.7 3.7 1.3 1.4-.3 2.5-1.4 2.7-2.8.1-.5.1-1.1.1-1.6-.6.8-1.4 1.5-2.4 1.8-2.7.9-6.5-.5-7.6-4.1-.8-2.7 0-5.6 2-7.3 1.9-1.6 4.9-1.8 6.8-.6.4.3.8.7 1.2 1v-1.5h2.9v11.4c0 1.3-.2 2.6-1 3.7-1 1.4-2.4 2.2-4 2.5-2 .4-4 .3-5.8-.9-1-.7-1.7-1.6-2-2.7-.1-.2-.1-.3-.2-.4zm6.4-3.7c2.2 0 3.6-1.6 3.6-3.9 0-2.1-1.6-3.7-3.7-3.7s-3.7 1.7-3.7 3.8c.1 2.3 1.7 3.9 3.8 3.8zM18.6 20h.2c2.2 0 4.4 0 6.6.1 3.9.2 6.7 3 7.1 6.9.2 1.9 0 3.8-.8 5.5-1.1 2.3-3 3.6-5.5 3.9-2.5.3-5.1.2-7.7.3.1-5.6.1-11.1.1-16.7zm3.3 13.8c1.3-.1 2.6-.1 3.8-.3 1.5-.2 2.6-1.2 3.1-2.7.6-1.6.6-3.2 0-4.9-.4-1.3-1.2-2.2-2.5-2.7-1.4-.5-2.9-.3-4.4-.3v10.9zM74.4 26v-1.7h2.8c.1 0 .2.2.2.3v11.5c0 .4-.1.6-.6.6h-2c-.3 0-.5-.1-.5-.5V35l-.3.3c-1.1 1.4-2.6 1.8-4.3 1.7-3.3-.2-5.3-2.5-5.8-5.3-.6-3.4 1.1-6.7 4.5-7.6 1.9-.5 3.7-.2 5.2 1.2.4.2.5.4.8.7zm-3.8 8.3c2.5-.1 3.7-1.9 3.7-3.9 0-2.1-1.7-3.8-3.8-3.8-2.1 0-3.7 1.7-3.7 3.9.1 2.2 1.8 3.8 3.8 3.8zM36.4 9.1c.1.9.1 1.8.3 2.6.4 1.8 2 3 3.8 2.9 1.9-.1 3.2-1.4 3.4-3.4V11c1 .1 1.9.2 2.9.2v.1c0 1.8 0 3.6-.1 5.4-.1 2.8-2.1 4.9-5 5.5-2.1.4-4 .2-5.8-1-1.1-.7-1.7-1.7-2.1-3H37c.1 0 .3.1.4.2.9 1.2 2.4 1.7 3.9 1.3 1.5-.4 2.5-1.7 2.5-3.2v-1.2c-.2.2-.3.4-.4.5-1.1 1.3-2.6 1.8-4.3 1.5-3.1-.5-5-2.3-5.5-5.4-.1-.6 0-1.3 0-2 0-.1.1-.2.1-.3.8-.3 1.7-.6 2.7-.5zM21.2 10.4c-.7-.5-1.3-.5-1.9-.2-.4.1-.5 0-.4-.3.1-.6.3-1.1.4-1.7 0-.1.2-.2.2-.2l3 .3c-.1.8-.7.6-1.1.8.2 0 .5 0 .7.1-.6 1.9-.4 3.5 1.2 4.8 1.1.9 3 .9 4.2.1 1.6-1.1 2-2.6 1.6-4.5 1 .2 2 .3 3.1.5V17h-2.9v-1.5h-.1c-1.7 2.5-6.1 2.4-8.3.3-1.3-1.3-1.9-2.9-2-4.7 0-.4.2-.4.5-.4.5-.1 1.1-.2 1.8-.3zm-.1-1.8c-.1.1-.3.3-.5.4 0-.1.1-.2.1-.3-.6 0-1.1-.2-1.5.5h.7c.7.2 1 .1 1.2-.6z"/><path class="st0" d="M59.3 24.3v-4.2h3v4.2H64c.3 0 .4.1.4.4v1.9h-2.1v10.1h-3V26.6h-2v-2.3h2zM79.3 20h2.9v16.6h-2.7c-.1 0-.2-.2-.2-.3V36 20.5 20zM34 36.6v-.5-11.3c0-.4.1-.6.5-.5h2.4v12.3H34zM53.5 24.3h2.9v12.4h-2.9V24.3zM8.1 11.1c.1.3.3.7.5 1.1.3-.9.6-1.7.9-2.4.2.1.5.1.7.2v-.1c-.1 0-.2-.1-.2-.1v-.1c.3.1.7.2 1 .4v.1c-.5.1-1.1.3-1.6.4v.1c.4 0 .8.1 1.2 0 .4 0 .9-.1 1.3-.2-.3.9-.6 1.7-.9 2.6-.4 1.2-.9 2.4-1.3 3.7 0 .1-.1.2-.4.2-.6 0-1.4.2-1.8-.1-.4-.3-.5-1.1-.7-1.6-.4-1.2-.8-2.3-1.2-3.5-.1-.1-.1-.3-.2-.5.6 0 1.2-.1 1.8-.1.2 0 .3-.1.5-.2.2 0 .4-.2.4.1-.5.1-1 .3-1.6.4.2.1.3.2.3.2.3 0 .6-.1.9-.1.4 0 .5-.2.4-.5zM43.8 6.1V5c.5 0 .9.1 1.3.1V5c-.1 0-.1-.1-.2-.1v-.1h1.8v2.7h-.3c-.6-.5-1.4-.3-2.1-.3-1.3-.1-2.7-.1-4.1-.2-.6 0-1.2.2-1.7.4-.3.1-.6.2-.9 0-.1-.1-.3 0-.5 0-.5 0-1 .1-1.4-.1-.3-.2-.5-.1-.8-.2l-.1.1c-.1 0-.2.1-.4.1.8-1.4 1.9-2.3 3.3-2.8h.3c.5 0 1 .1 1.5.2.8.1 1.7.1 2.5.4.6.2 1.4.1 1.6 1.1.1-.1.2-.1.2-.1zm-6.2.2c-.5 0-.8-.1-1.2-.1.2.6.5.6 1.2.1zM57.6 8.7c.1 0 .2.1.3.1v.1c-.4-.1-.8-.1-1.2-.2-.1 0-.2-.2-.2-.3-.6-1.6-2.7-1.7-3.7-.8-.3.3-.7.4-1.1.3-.3-.1-.7-.1-1-.1-.6-.1-1.2-.2-1.8-.2V6.4h.4v-.1c-.1 0-.3-.1-.4-.1v-.7c.1 0 .2-.1.3-.1v-.1c-.1 0-.2-.1-.4-.1v-.5h2.7V6c.3-.3.6-.6.9-.8.3-.3.6-.4 1-.2 1.1.3 2.1.5 3.2.8-.4.2-.9.4-1.3.6 1.5 0 2.9.8 4.5.3-.3.6.3.4.4.7-.2 0-.4.1-.6.1v.1c.3.1.5.1.8.2-.2.3-.4.4-.7.3-.7-.2-1.3-.3-2-.4-.3 0-.5-.1-.8-.1-.1 0-.3 0-.4.1v.2c.2.1.4.2.5.2l3 .3c-.1.4-.2.7-.3 1.1-.4-.1-.8-.1-1.1-.2-.3-.1-.6-.3-.9-.5 0-.2-.1-.2-.1-.1zM-.2.4h.8c.2 0 .4.1.4.2.3.4.7.4 1 .2.5-.3 1-.6 1.8-.4-.4.3-.8.5-1.3.7.5.3.9-.3 1.3-.2 0-.1-.1-.2-.1-.2.2 0 .4-.1.6-.1.4.7.7 1.5.9 2.3-.5.3-1 .5-1.6.7v.1c.6-.1 1.1-.2 1.7-.3.1.3.2.6.4 1-.1.1-.3.1-.5.2v.1c.3.2.5.3.8.4v.1c-.3 0-.5.1-.8.2.2.2.2.2 1 .1.1.2.1.4.3.6-.5.1-.8.2-1.1.3.3.5.5.5 1 0 .1.4.3.8.4 1.2-.8.1-1.6.3-2.5.5-.2-.7-.5-1.4-.7-2.1.3-.2.6-.3.8-.4v-.1c-.3.1-.6.1-.9.2l-.3-.9-.3-.6c-.1-.5-.1-.6.4-.6.1 0 .1 0 .2-.2-.3 0-.7-.1-1-.1-.3 0-.7.3-1 .4L.3 4h-.5V.4zM2.8 9.5v2.4c0 .1-.2.3-.2.4.1.1.2.2.2.3v4.5h-3v-.4-5.9c0-.3 0-.5.4-.5.8-.4 1.7-.6 2.6-.8zM80.6 7c-.2-.1-.3-.1-.4-.2.2.4.2.3.6.2.2-.1.5 0 .8-.1h.6v1.2c-.9-.2-1.9-.4-2.8-.6.1.1.1.2.2.3l-2.1-.3c.8-.1 1.6-.3 2.4-.4v-.2c-3.1-.1-6.3-.3-9.4-.4 1.8-2.6 6.8-3.2 8.7-.4-.5 0-1 .1-1.6.1 1 .6 2.1 0 3 .6-.1 0-.1.1 0 .2zm-4.1-.7v.2c.3.1.5.1.8.2.1 0 .2-.1.2-.1 0-.1-.1-.2-.1-.2-.3-.1-.6-.1-.9-.1zM79.1 15.5c-1.8 2.6-6.6 2.4-8.6-.2.8-.2 1.7-.4 2.4-.8.6-.3 1.1-.2 1.7-.1.8.2 1.5.2 2.3-.1.7-.2 1.2 0 1.7.6.1.3.3.4.5.6zM17.3 17h-3v-5.8c.3-.1.5-.1.8-.1h1.5c.2 0 .5-.1.8-.2-.1 1.9-.1 4-.1 6.1zM51.6 17h-2.8v-5.6c1-.1 1.9-.2 2.9-.3 0 .1-.1.2-.2.4 0 .1.2.2.2.3 0 1.7 0 3.4-.1 5.2.1-.1.1-.1 0 0zM81.4 13.1c-.9-.1-1.8-.1-2.7-.2 0 0 0-.1-.1-.1.3-.2.5-.3.8-.5H79c.1-.8.1-1.6.2-2.4.2 0 .4-.1.6-.2v-.1c-.3-.1-.6-.2-.9-.2v-.1H82c-.1 0-.2.1-.4.2.2.1.3.1.5.1V14l-3.9-.3v-.2c1-.3 2.1 0 3.1-.1.1-.2.1-.2.1-.3zM28.6 7.5c-.4 0-.8 0-1.1-.1-.1 0-.3 0-.4-.1-1-.4-2-.4-3.1-.1-.2.1-.3.1-.5.1-1.1-.1-2.2-.1-3.3-.2h-.3c.5-1.3 2.6-2.6 4-2.7-.1.5-.2 1-.4 1.4-.1.4.2.6.4.7.2.1.6 0 .9 0 .1 0 .2-.2.2-.2.6.1.9-.4 1.3-.6.4-.2.9-.2 1.4-.1-.4.1-.8.3-1.2.4v.2h2.4c-.1.4-.2.9-.3 1.3zM21.9 6v.1c.4-.1.9.3 1.4-.1h-1.4zM67.6 13v3.9h-2.9v-3.4c0-.2.4-.5.5-.4.4.1.9-.3 1.4.1.2.1.6-.1 1-.2z"/><path class="st0" d="M2.8 4.7v1.2c-.3 0-.6.1-.9.2v.2h.4c.1 0 .3 0 .4-.1v.1c.1 1.1.1 1.1-.9 1.4-.6.1-1.3.3-2.1.5.1-.4.1-.7.2-1-.3-.1-.1-.5-.1-.7 0-.2.2-.5.3-.7h-.3V4.7c1-.3 1.9-.6 2.9-.9v.6c-.6.2-1.2.4-1.9.6v.2c.7-.2 1.3-.4 2-.5zM67.5 8.4c0 .3 0 .8.1 1.3-.2 0-.4 0-.6.1v.1c.2 0 .4.1.6.1v1.3c-1-.3-1.9-.6-2.9-.8-.3-1.6-.3-1.9-.1-2-.1-.1-.3-.2-.5-.4.2-.1.3-.1.5-.2-.4-.1-1-.1-.8-.7.8 0 1.6.1 2.3.1v.1c-.2 0-.4.1-.7.1.1.1.2.1.2.2-.3.2-.7-.7-1 .1 1 .1 1.9.3 2.9.6zM72.1 9.3c-.3 1.1-.4 2.2.3 3.4-.8-.3-1.5-.5-2.3-.7.1-.1.1-.2.1-.3l.1-.1.6.3c-.2-.6-.6-.6-1-.6h-.2c-.7.4-.8.3-.8-.5 0-.7.1-1.5.2-2.3 1.1.4 2 .6 3 .8zM32.2 7.2h-2.4v.2c.7.3 1.6.1 2.4.3v.2c-1 0-2.1-.1-3.2-.1.4-1 .6-2 .2-3h3v2.4zM17.3 1.2v1.7c0 .1-.2.3-.3.4-.5.4-1.1.7-1.6 1.1v-.6c-.1-.3-.1-.6-.2-.9 0 0 0-.1-.1-.1-.5-.1-.9-.4-1.4-.4-.6 0-1.1.2-1.7.3l.3-.9c.1-.1.3-.2.5-.2.8-.1 1.6-.1 2.4-.1.7-.2 1.3-.2 2.1-.3zM59.6 17h-2.9v-2.3c.9-.3 1.9-.5 2.9-.8V17zM56.4 20v2.6h-2.9V20h2.9zM65.1 5.9c-.8-.1-1.6-.3-2.5-.5.2-.1.2-.2.3-.2-.1-.2-.9-.1-1 .1 0 .1-.1.1-.1.1-.5-.1-1-.2-1.6-.3.6-.5 1.3-.7 2-.8.8-.1 1.7-.1 2.4.3.1 0 .2.2.3.3.1.1.2.1.3.1.3 0 .6.1.8.3-.3 0-.7.1-1 .1.7.2 1.6.1 2 1.1h-5.7v-.2c1.3.3 2.5-.1 3.8-.4zM14.3 10.5c-.1-.5-.1-.5.5-.5.4 0 .8-.1 1.2-.2.1 0 .3-.2.4-.4-.6 0-1.1.1-1.6.1-.5.1-.6 0-.6-.5V7.6c1 .1 2 .1 3 .2v2.6c-.9.1-1.9.1-2.9.1zM5 9.9c.2-.1.4-.2.5-.2v-.1c-.2 0-.4.1-.6.1-.1-.2-.1-.3-.2-.5.8-.2 1.5-.4 2.3-.7v-.2c-.8.3-1.6.5-2.3.7 0 0 0-.1-.1-.1l.2-.2c-.1 0-.2-.1-.3-.1l.1-.1c.7-.2 1.5-.4 2.2-.5.1 0 .2.1.3.2.1.2.2.4.2.7-.3.2-.7.3-1.1.5.1.4.6.5.6.4 0-.6.5-.2.6-.5.1.2.2.3.2.5-.3 0-.7.1-1.1.2v.2c.4-.1.8-.1 1.2-.2.1.2.1.4.3.7-.4 0-.8 0-1.2.1-.3 0-.6 0-.8.1-.5.1-.7.1-.9-.4 0-.2-.1-.4-.1-.6zM13.8 5c-.2.5-.3 1.1-.6 1.6-.1.2-.5.5-.7.5-.7.1-1.4 0-2.2 0 .2-.3.3-.5.5-.8 0-.1.1-.1.1-.2 0-.8.2-1.1 1-1.1.6.1 1.2 0 1.9 0zm-2.5 1.1c0 .1 0 .2.1.3.4-.1.7-.2 1.1-.3v-.2c-.4.1-.8.1-1.2.2zM57.2 11.4h1.2c.4.1.8.2 1.1.3.1 0 .2.2.2.3.1.9.1.9-.7 1.1-.7.2-1.4.3-2.2.5 0-.6.1-1.2.1-1.8h.7v-.1c-.2-.1-.3-.2-.5-.3 0 .1 0 .1.1 0zM11.4 9.2c-.1-.1-.2-.1-.3-.2.2-.1.3-.1.5-.2v-.1c-.5.1-1.1.2-1.8.3.2.1.3.2.4.3-.2 0-.3 0-.6.1.2-.6.3-1 .5-1.5 0-.1.2-.2.4-.2h2.4c-.3.5-.1 1.1-1 1.3.3-.1.4 0 .5 0-.1.3-.8.6-1.9.6.4-.1.6-.2.9-.4zM69.8 12.5h.4c.7.1 1.3.3 2 .4.1 0 .3.1.4.2.1.1.2.3.3.4-.1.1-.3.2-.4.2-.5.1-1 .3-1.5.4-.6.1-1.1-.4-1.1-1-.1-.1-.1-.3-.1-.6zM14.3 6.9v-1c.8-.1 1.7-.2 2.6-.3.1.4.3.8.5 1.3h-3.1zM79.3 16.9v-1.4c1 .2 1.9.4 2.9.7v.7h-2.9zM81.4 5.5s.1.1.2.1c-.5 0-.9 0-1.4-.1v.2c.2 0 .5.1.7.1v.1c-.1 0-.3.1-.4.1-.2 0-.3-.1-.5-.2-.1-.5-.5-.1-.7-.3v-.9h2.9v.7c-.2.1-.5.1-.8.2 0-.1 0 0 0 0zM78.8 13.9c1.1.1 2.2.2 3.4.4v1.2c-.2 0-.4 0-.6-.1-.8-.2-1.5-.5-2.3-.8-.1-.1-.3-.4-.5-.7zM57.2 11.2c0-.2-.1-.5-.1-.7.4-.3 1 .4 1.3-.3-.3 0-.7 0-1-.1-.2-.1-.6.1-.8-.1 0-.1 0-.1.1-.2.8.1 1.6.3 2.4.4.5.1.6.3.6.7v.3h-2.5zM24.5 4.2c.8.1 1.6.2 2.3.3v.2c-.2.1-.5.3-.8.4-.5.2-1 .5-1.5.7-.2.1-.6.1-.4-.3.2-.5.3-.9.4-1.3zM2.8 7.9c.1.4 0 .6-.4.7-.5.1-.9.2-1.4.4-.3.1-.7.2-1.2.4 0-.3-.1-.8 0-.9.3-.2.7-.4 1.1-.4.3 0 .6.2.9-.1.2-.2.6-.1 1-.1zM13.7 1c.1-.1.2-.2.4-.3h-.7V.5C14.7.1 16 .4 17.3.3c-.2.5-.5.2-.7.4 0 .1-.2.3-.3.3h-2.6zM72.9 8c-.3 1.1-1.1.7-1.8.7-.6 0-1.2-.2-1.8-.3.1-.4.1-.4.7-.4.5.1.9.1 1.4-.1.4-.1.9.1 1.5.1zM46.7 9.4c.2.7.1.8-.5.8-.8 0-1.6-.1-2.4-.2 0-.2-.1-.3-.2-.5 1.1-.1 2.1-.1 3.1-.1z"/><path class="st0" d="M11.1 4.9c.4-1.1 1.3-1 2.1-1.3-.1-.1-.2-.1-.4-.3h.9c.1.3.2.6.4 1 0 0-.2.2-.3.2-.2 0-.4-.2-.5-.2-.2 0-.3-.1-.5-.1s-.3.1-.5.2-.5 0-.6.4c-.1.1-.4.1-.6.1zM52 8.6c-.1.3-.1.4-.2.6h-1.7v-.1c.2 0 .3 0 .6-.1-.4-.1-.7-.3-1-.4.2.4.2.4-.9.6v-.7c1.1 0 2.1.1 3.2.1zM43.1 8.6H45.4c.3.6.8.5 1.2.5h-3.1s-.2-.4-.4-.5zM67.4 12c-.9.1-1.8.2-2.8.2v-.5c.2 0 .4-.1.7-.1-.3-.1-.5-.2-.7-.3v-.1c.9.2 1.8.5 2.8.7.1 0 .1 0 0 .1zM48.8 10.2v-.7c.3.1.6.2.9.2.3 0 .4-.1.3.3.1 0 .2.1.3.1.3 0 .7-.1 1-.2.1 0 .2-.1.4-.3v.6h-2.9zM23.4 7.7c-.2.1-.5.2-.7.2-1-.1-2-.2-3.1-.4.1-.1.2-.2.3-.1 1.1.1 2.3.1 3.4.2.1 0 .1 0 .1.1zM32.2 8.5c-1-.1-2.1-.1-3.1-.2-.1 0-.1-.1-.2-.3 1.2.1 2.3.2 3.3.3v.2zM56.3 5.8c.8.1 1.5.2 2.3.3v.2c-.8-.1-1.6-.1-2.3-.2v-.3zM78.2 8.1c.8-.5 1.3.1 1.9.2-.1.3-.1.2-.4.1-.3-.1-.6 0-1-.1-.1 0-.3-.1-.5-.2zM34.2 7.8c1.1 0 2.2.1 3.3.1h-3.3v-.1zM32.2 9.3c-.5-.1-.9-.1-1.3-.1v-.1c.4-.1.8-.1 1.2-.1 0-.1.1.1.1.3zM61.2 7c-.1 0-.3 0-.4.1.1.1.1.2.2.3-.4-.2-.6-.4-1-.6.5 0 .8 0 1.2.1V7zM81.1 6.5h1.1c-.3.3-.7.3-1.1.1v-.1zM33.8 8.7c.3-.3.3-.4 1.3-.2-.4.1-.8.1-1.3.2zM15.7 7.3h1.6v.1c-.6 0-1.1-.1-1.6-.1z"/></g></svg>