<svg xmlns="http://www.w3.org/2000/svg" height="31" width="142" viewBox="0 0 142 31"><title>logo-pdffiller</title><g fill-rule="evenodd" fill="none"><path fill="#E74C3C" d="M59.502 16.548c-1.042.894-2.529 1.34-4.462 1.34h-3.704v6.574h-3.693V6.179h7.639c1.76 0 3.165.471 4.212 1.414 1.047.943 1.57 2.402 1.57 4.378 0 2.159-.521 3.684-1.562 4.577zm-2.837-6.586c-.471-.405-1.131-.608-1.979-.608h-3.35v5.383h3.35c.848 0 1.508-.218 1.979-.657.47-.438.706-1.133.706-2.084s-.236-1.629-.706-2.034zM73.304 6.62c1.248.421 2.259 1.195 3.032 2.32a8.242 8.242 0 0 1 1.268 2.951c.226 1.059.339 2.068.339 3.027 0 2.431-.475 4.49-1.425 6.177-1.289 2.274-3.278 3.411-5.968 3.411h-7.67V6.223h7.67c1.104.016 2.021.149 2.754.397zm-6.815 2.778V21.33h3.433c1.757 0 2.982-.888 3.675-2.666.378-.976.568-2.138.568-3.486 0-1.86-.284-3.289-.852-4.285-.569-.997-1.699-1.495-3.391-1.495h-3.433zM79.758 6.247h12.686V9.46h-8.992v4.205h7.972v3.175h-7.972v7.666h-3.694V6.248z"/><path fill="#878787" d="M101.05 6.055c.18.013.42.031.73.056v2.878c-.19-.025-.52-.044-.97-.056-.46-.012-.77.091-.944.31-.173.22-.26.461-.26.726v1.141h2.254v2.493h-2.254v10.903h-3.415V13.603h-1.932V11.11h1.883v-.869c0-1.446.237-2.443.712-2.989.499-.81 1.702-1.216 3.606-1.216.22 0 .42.007.59.02zM107.17 9.331h-3.49V6.07h3.49v3.262zm-3.49 1.613h3.49v13.52h-3.49v-13.52zM112.42 24.464h-3.44V6.181h3.44v18.283zM117.68 24.464h-3.44V6.181h3.44v18.283zM129.11 11.218c.91.422 1.67 1.089 2.27 2 .54.803.89 1.735 1.05 2.795.09.621.13 1.516.11 2.683h-9.58c.05 1.356.51 2.307 1.37 2.853.53.339 1.16.509 1.9.509.78 0 1.42-.207 1.91-.62.27-.224.5-.534.71-.931h3.51c-.09.802-.52 1.617-1.27 2.444-1.18 1.315-2.83 1.972-4.95 1.972-1.75 0-3.3-.555-4.64-1.664s-2.01-2.913-2.01-5.412c0-2.342.61-4.138 1.82-5.388s2.77-1.875 4.7-1.875c1.15 0 2.18.211 3.1.634zm-5.15 3.053c-.49.515-.79 1.213-.92 2.093h5.93c-.06-.938-.37-1.65-.92-2.136s-1.23-.729-2.04-.729c-.88 0-1.56.258-2.05.772zM141.7 10.628l.3.018v3.622a9.66 9.66 0 0 0-.99-.062c-1.38 0-2.31.463-2.79 1.389-.26.521-.4 1.323-.4 2.407v6.462h-3.46v-13.52h3.28v2.357c.53-.902 1-1.518 1.39-1.849.64-.553 1.48-.831 2.51-.831.07 0 .12.002.16.007z"/><path fill="#CF4436" d="M34.273 0L16.857 31h12.75l11.041-19.653L34.273 0z"/><path fill="#E95E50" d="M22.612 18.63l-2.579-4.924H7.283l8.981 16.223 6.348-11.299z"/><path fill="#666" d="M33.079 0H0l6.356 11.347h20.348L33.08 0z"/></g></svg>