<?xml version="1.0" encoding="utf-8"?>
<!-- Generator: Adobe Illustrator 19.1.1, SVG Export Plug-In . SVG Version: 6.00 Build 0)  -->
<svg version="1.1" id="Layer_1" xmlns="http://www.w3.org/2000/svg" xmlns:xlink="http://www.w3.org/1999/xlink" x="0px" y="0px"
	 viewBox="0 0 84 42" style="enable-background:new 0 0 84 42;" xml:space="preserve">
<style type="text/css">
	.st0{fill:#F5F5F5;}
</style>
<g id="AJzwKZ_8_">
	<g>
		<g>
			<path class="st0" d="M38.6,37.9c1.1,0,2.1,0,3.2,0c0.1,0,0.3,0.1,0.4,0.2c0.8,1.2,2.2,1.7,3.7,1.3c1.4-0.3,2.5-1.4,2.7-2.8
				c0.1-0.5,0.1-1.1,0.1-1.6c-0.6,0.8-1.4,1.5-2.4,1.8c-2.7,0.9-6.5-0.5-7.6-4.1c-0.8-2.7,0-5.6,2-7.3c1.9-1.6,4.9-1.8,6.8-0.6
				c0.4,0.3,0.8,0.7,1.2,1c0-0.5,0-1,0-1.5c1,0,1.9,0,2.9,0c0,0.1,0,0.3,0,0.4c0,3.7,0,7.3,0,11c0,1.3-0.2,2.6-1,3.7
				c-1,1.4-2.4,2.2-4,2.5c-2,0.4-4,0.3-5.8-0.9c-1-0.7-1.7-1.6-2-2.7C38.7,38.1,38.7,38,38.6,37.9z M45,34.2c2.2,0,3.6-1.6,3.6-3.9
				c0-2.1-1.6-3.7-3.7-3.7c-2.1,0-3.7,1.7-3.7,3.8C41.3,32.7,42.9,34.3,45,34.2z"/>
			<path class="st0" d="M18.6,20c0.1,0,0.2,0,0.2,0c2.2,0,4.4,0,6.6,0.1c3.9,0.2,6.7,3,7.1,6.9c0.2,1.9,0,3.8-0.8,5.5
				c-1.1,2.3-3,3.6-5.5,3.9c-2.5,0.3-5.1,0.2-7.7,0.3C18.6,31.1,18.6,25.6,18.6,20z M21.9,33.8c1.3-0.1,2.6-0.1,3.8-0.3
				c1.5-0.2,2.6-1.2,3.1-2.7c0.6-1.6,0.6-3.2,0-4.9c-0.4-1.3-1.2-2.2-2.5-2.7c-1.4-0.5-2.9-0.3-4.4-0.3
				C21.9,26.5,21.9,30.1,21.9,33.8z"/>
			<path class="st0" d="M74.4,26c0-0.6,0-1.1,0-1.7c1,0,1.9,0,2.8,0c0.1,0,0.2,0.2,0.2,0.3c0,0.6,0,1.2,0,1.8c0,3.2,0,6.4,0,9.7
				c0,0.4-0.1,0.6-0.6,0.6c-0.7,0-1.3,0-2,0c-0.3,0-0.5-0.1-0.5-0.5c0-0.4,0-0.7,0-1.2c-0.1,0.1-0.2,0.2-0.3,0.3
				c-1.1,1.4-2.6,1.8-4.3,1.7c-3.3-0.2-5.3-2.5-5.8-5.3c-0.6-3.4,1.1-6.7,4.5-7.6c1.9-0.5,3.7-0.2,5.2,1.2
				C74,25.5,74.1,25.7,74.4,26z M70.6,34.3c2.5-0.1,3.7-1.9,3.7-3.9c0-2.1-1.7-3.8-3.8-3.8c-2.1,0-3.7,1.7-3.7,3.9
				C66.9,32.7,68.6,34.3,70.6,34.3z"/>
			<path class="st0" d="M36.4,9.1c0.1,0.9,0.1,1.8,0.3,2.6c0.4,1.8,2,3,3.8,2.9c1.9-0.1,3.2-1.4,3.4-3.4c0-0.1,0-0.2,0-0.2
				c1,0.1,1.9,0.2,2.9,0.2c0,0,0,0.1,0,0.1c0,1.8,0,3.6-0.1,5.4c-0.1,2.8-2.1,4.9-5,5.5c-2.1,0.4-4,0.2-5.8-1
				c-1.1-0.7-1.7-1.7-2.1-3c1.1,0,2.1,0,3.2,0c0.1,0,0.3,0.1,0.4,0.2c0.9,1.2,2.4,1.7,3.9,1.3c1.5-0.4,2.5-1.7,2.5-3.2
				c0-0.4,0-0.7,0-1.2c-0.2,0.2-0.3,0.4-0.4,0.5c-1.1,1.3-2.6,1.8-4.3,1.5c-3.1-0.5-5-2.3-5.5-5.4c-0.1-0.6,0-1.3,0-2
				c0-0.1,0.1-0.2,0.1-0.3C34.5,9.3,35.4,9,36.4,9.1z"/>
			<path class="st0" d="M21.2,10.4c-0.7-0.5-1.3-0.5-1.9-0.2c-0.4,0.1-0.5,0-0.4-0.3c0.1-0.6,0.3-1.1,0.4-1.7c0-0.1,0.2-0.2,0.2-0.2
				c1,0.1,2,0.2,3,0.3c-0.1,0.8-0.7,0.6-1.1,0.8c0.2,0,0.5,0,0.7,0.1c-0.6,1.9-0.4,3.5,1.2,4.8c1.1,0.9,3,0.9,4.2,0.1
				c1.6-1.1,2-2.6,1.6-4.5c1,0.2,2,0.3,3.1,0.5c0,2.2,0,4.6,0,6.9c-1,0-1.9,0-2.9,0c0-0.5,0-1,0-1.5c-0.1,0-0.1,0-0.1,0
				c-1.7,2.5-6.1,2.4-8.3,0.3c-1.3-1.3-1.9-2.9-2-4.7c0-0.4,0.2-0.4,0.5-0.4C19.9,10.6,20.5,10.5,21.2,10.4z M21.1,8.6
				C21,8.7,20.8,8.9,20.6,9c0-0.1,0.1-0.2,0.1-0.3c-0.6,0-1.1-0.2-1.5,0.5c0.3,0,0.5,0,0.7,0C20.6,9.4,20.9,9.3,21.1,8.6z"/>
			<path class="st0" d="M59.3,24.3c0-1.5,0-2.8,0-4.2c1,0,1.9,0,3,0c0,1.4,0,2.8,0,4.2c0.6,0,1.2,0,1.7,0c0.3,0,0.4,0.1,0.4,0.4
				c0,0.6,0,1.2,0,1.9c-0.7,0-1.4,0-2.1,0c0,3.4,0,6.7,0,10.1c-1,0-2,0-3,0c0-3.3,0-6.7,0-10.1c-0.7,0-1.4,0-2,0c0-0.8,0-1.5,0-2.3
				C57.9,24.3,58.5,24.3,59.3,24.3z"/>
			<path class="st0" d="M79.3,20c1,0,1.9,0,2.9,0c0,5.5,0,11.1,0,16.6c-0.9,0-1.8,0-2.7,0c-0.1,0-0.2-0.2-0.2-0.3c0-0.1,0-0.2,0-0.3
				c0-5.2,0-10.3,0-15.5C79.3,20.4,79.3,20.2,79.3,20z"/>
			<path class="st0" d="M34,36.6c0-0.2,0-0.3,0-0.5c0-3.8,0-7.6,0-11.3c0-0.4,0.1-0.6,0.5-0.5c0.8,0,1.6,0,2.4,0c0,4.1,0,8.2,0,12.3
				C36,36.6,35,36.6,34,36.6z"/>
			<path class="st0" d="M53.5,24.3c0.2,0,0.3,0,0.4,0c0.8,0,1.6,0,2.5,0c0,4.1,0,8.2,0,12.4c-1,0-1.9,0-2.9,0
				C53.5,32.5,53.5,28.5,53.5,24.3z"/>
			<path class="st0" d="M8.1,11.1c0.1,0.3,0.3,0.7,0.5,1.1c0.3-0.9,0.6-1.7,0.9-2.4c0.2,0.1,0.5,0.1,0.7,0.2c0,0,0-0.1,0-0.1
				c-0.1,0-0.2-0.1-0.2-0.1c0,0,0-0.1,0-0.1c0.3,0.1,0.7,0.2,1,0.4c0,0,0,0.1,0,0.1c-0.5,0.1-1.1,0.3-1.6,0.4c0,0,0,0.1,0,0.1
				c0.4,0,0.8,0.1,1.2,0c0.4,0,0.9-0.1,1.3-0.2c-0.3,0.9-0.6,1.7-0.9,2.6c-0.4,1.2-0.9,2.4-1.3,3.7C9.7,16.9,9.6,17,9.3,17
				c-0.6,0-1.4,0.2-1.8-0.1c-0.4-0.3-0.5-1.1-0.7-1.6C6.4,14.1,6,13,5.6,11.8c-0.1-0.1-0.1-0.3-0.2-0.5c0.6,0,1.2-0.1,1.8-0.1
				c0.2,0,0.3-0.1,0.5-0.2C7.9,11,8.1,10.8,8.1,11.1c-0.5,0.1-1,0.3-1.6,0.4c0.2,0.1,0.3,0.2,0.3,0.2c0.3,0,0.6-0.1,0.9-0.1
				C8.1,11.6,8.2,11.4,8.1,11.1z"/>
			<path class="st0" d="M43.8,6.1c0-0.4,0-0.7,0-1.1c0.5,0,0.9,0.1,1.3,0.1c0,0,0-0.1,0-0.1c-0.1,0-0.1-0.1-0.2-0.1c0,0,0,0,0-0.1
				c0.6,0,1.2,0,1.8,0c0,0.9,0,1.8,0,2.7c-0.1,0-0.2,0-0.3,0c-0.6-0.5-1.4-0.3-2.1-0.3C43,7.1,41.6,7.1,40.2,7
				c-0.6,0-1.2,0.2-1.7,0.4c-0.3,0.1-0.6,0.2-0.9,0c-0.1-0.1-0.3,0-0.5,0c-0.5,0-1,0.1-1.4-0.1c-0.3-0.2-0.5-0.1-0.8-0.2
				c0,0-0.1,0.1-0.1,0.1c-0.1,0-0.2,0.1-0.4,0.1c0.8-1.4,1.9-2.3,3.3-2.8c0.1,0,0.2,0,0.3,0c0.5,0,1,0.1,1.5,0.2
				c0.8,0.1,1.7,0.1,2.5,0.4c0.6,0.2,1.4,0.1,1.6,1.1C43.7,6.1,43.8,6.1,43.8,6.1z M37.6,6.3c-0.5,0-0.8-0.1-1.2-0.1
				C36.6,6.8,36.9,6.8,37.6,6.3z"/>
			<path class="st0" d="M57.6,8.7c0.1,0,0.2,0.1,0.3,0.1c0,0,0,0,0,0.1c-0.4-0.1-0.8-0.1-1.2-0.2c-0.1,0-0.2-0.2-0.2-0.3
				c-0.6-1.6-2.7-1.7-3.7-0.8c-0.3,0.3-0.7,0.4-1.1,0.3c-0.3-0.1-0.7-0.1-1-0.1c-0.6-0.1-1.2-0.2-1.8-0.2c0-0.4,0-0.8,0-1.2
				c0.2,0,0.3,0,0.4,0c0,0,0,0,0-0.1c-0.1,0-0.3-0.1-0.4-0.1c0-0.2,0-0.4,0-0.7c0.1,0,0.2-0.1,0.3-0.1c0,0,0,0,0-0.1
				c-0.1,0-0.2-0.1-0.4-0.1c0-0.2,0-0.3,0-0.5c0.9,0,1.8,0,2.7,0c0,0.4,0,0.8,0,1.3c0.3-0.3,0.6-0.6,0.9-0.8c0.3-0.3,0.6-0.4,1-0.2
				c1.1,0.3,2.1,0.5,3.2,0.8c-0.4,0.2-0.9,0.4-1.3,0.6c1.5,0,2.9,0.8,4.5,0.3c-0.3,0.6,0.3,0.4,0.4,0.7c-0.2,0-0.4,0.1-0.6,0.1
				c0,0,0,0,0,0.1c0.3,0.1,0.5,0.1,0.8,0.2c-0.2,0.3-0.4,0.4-0.7,0.3c-0.7-0.2-1.3-0.3-2-0.4c-0.3,0-0.5-0.1-0.8-0.1
				c-0.1,0-0.3,0-0.4,0.1c0,0.1,0,0.1,0,0.2c0.2,0.1,0.4,0.2,0.5,0.2c1,0.1,2,0.2,3,0.3c-0.1,0.4-0.2,0.7-0.3,1.1
				c-0.4-0.1-0.8-0.1-1.1-0.2c-0.3-0.1-0.6-0.3-0.9-0.5C57.7,8.6,57.6,8.6,57.6,8.7z"/>
			<path class="st0" d="M-0.2,0.4c0.3,0,0.6,0,0.8,0C0.8,0.4,1,0.5,1,0.6C1.3,1,1.7,1,2,0.8c0.5-0.3,1-0.6,1.8-0.4
				C3.4,0.7,3,0.9,2.5,1.1c0.5,0.3,0.9-0.3,1.3-0.2c0-0.1-0.1-0.2-0.1-0.2c0.2,0,0.4-0.1,0.6-0.1C4.7,1.3,5,2.1,5.2,2.9
				C4.7,3.2,4.2,3.4,3.6,3.6c0,0,0,0.1,0,0.1c0.6-0.1,1.1-0.2,1.7-0.3c0.1,0.3,0.2,0.6,0.4,1C5.6,4.5,5.4,4.5,5.2,4.6
				c0,0,0,0.1,0,0.1C5.5,4.9,5.7,5,6,5.1c0,0,0,0.1,0,0.1C5.7,5.2,5.5,5.3,5.2,5.4c0.2,0.2,0.2,0.2,1,0.1c0.1,0.2,0.1,0.4,0.3,0.6
				C6,6.2,5.7,6.3,5.4,6.4c0.3,0.5,0.5,0.5,1,0c0.1,0.4,0.3,0.8,0.4,1.2C6,7.7,5.2,7.9,4.3,8.1C4.1,7.4,3.8,6.7,3.6,6
				c0.3-0.2,0.6-0.3,0.8-0.4c0,0,0-0.1,0-0.1C4.1,5.6,3.8,5.6,3.5,5.7C3.4,5.4,3.3,5.1,3.2,4.8C3.1,4.6,3,4.4,2.9,4.2
				C2.8,3.7,2.8,3.6,3.3,3.6c0.1,0,0.1,0,0.2-0.2c-0.3,0-0.7-0.1-1-0.1c-0.3,0-0.7,0.3-1,0.4C1.1,3.8,0.7,3.9,0.3,4C0.1,4,0,4-0.2,4
				C-0.2,2.8-0.2,1.6-0.2,0.4z"/>
			<path class="st0" d="M2.8,9.5c0,0.8,0,1.6,0,2.4c0,0.1-0.2,0.3-0.2,0.4c0.1,0.1,0.2,0.2,0.2,0.3c0,1.5,0,3,0,4.5c-1,0-2,0-3,0
				c0-0.2,0-0.3,0-0.4c0-2,0-3.9,0-5.9c0-0.3,0-0.5,0.4-0.5C1,9.9,1.9,9.7,2.8,9.5z"/>
			<path class="st0" d="M80.6,7c-0.2-0.1-0.3-0.1-0.4-0.2c0.2,0.4,0.2,0.3,0.6,0.2C81,6.9,81.3,7,81.6,6.9c0.2,0,0.4,0,0.6,0
				c0,0.2,0,0.4,0,0.6c0,0.2,0,0.3,0,0.6c-0.9-0.2-1.9-0.4-2.8-0.6c0.1,0.1,0.1,0.2,0.2,0.3c-0.7-0.1-1.4-0.2-2.1-0.3
				c0.8-0.1,1.6-0.3,2.4-0.4c0-0.1,0-0.1,0-0.2c-3.1-0.1-6.3-0.3-9.4-0.4c1.8-2.6,6.8-3.2,8.7-0.4c-0.5,0-1,0.1-1.6,0.1
				c1,0.6,2.1,0,3,0.6C80.5,6.8,80.5,6.9,80.6,7z M76.5,6.3c0,0.1,0,0.1,0,0.2c0.3,0.1,0.5,0.1,0.8,0.2c0.1,0,0.2-0.1,0.2-0.1
				c0-0.1-0.1-0.2-0.1-0.2C77.1,6.3,76.8,6.3,76.5,6.3z"/>
			<path class="st0" d="M79.1,15.5c-1.8,2.6-6.6,2.4-8.6-0.2c0.8-0.2,1.7-0.4,2.4-0.8c0.6-0.3,1.1-0.2,1.7-0.1
				c0.8,0.2,1.5,0.2,2.3-0.1c0.7-0.2,1.2,0,1.7,0.6C78.7,15.2,78.9,15.3,79.1,15.5z"/>
			<path class="st0" d="M17.3,17c-1,0-2,0-3,0c0-2,0-3.9,0-5.8c0.3-0.1,0.5-0.1,0.8-0.1c0.5,0,1,0,1.5,0c0.2,0,0.5-0.1,0.8-0.2
				C17.3,12.8,17.3,14.9,17.3,17z"/>
			<path class="st0" d="M51.6,17c-0.9,0-1.9,0-2.8,0c0-1.9,0-3.8,0-5.6c1-0.1,1.9-0.2,2.9-0.3c0,0.1-0.1,0.2-0.2,0.4
				c0,0.1,0.2,0.2,0.2,0.3C51.7,13.5,51.7,15.2,51.6,17C51.7,16.9,51.7,16.9,51.6,17z"/>
			<path class="st0" d="M81.4,13.1c-0.9-0.1-1.8-0.1-2.7-0.2c0,0,0-0.1-0.1-0.1c0.3-0.2,0.5-0.3,0.8-0.5c-0.2,0-0.3,0-0.4,0
				c0.1-0.8,0.1-1.6,0.2-2.4c0.2,0,0.4-0.1,0.6-0.2c0,0,0-0.1,0-0.1c-0.3-0.1-0.6-0.2-0.9-0.2c0,0,0-0.1,0-0.1c1,0,2.1,0,3.1,0
				c-0.1,0-0.2,0.1-0.4,0.2c0.2,0.1,0.3,0.1,0.5,0.1c0,1.4,0,2.9,0,4.4c-1.3-0.1-2.6-0.2-3.9-0.3c0-0.1,0-0.1,0-0.2
				c1-0.3,2.1,0,3.1-0.1C81.4,13.2,81.4,13.2,81.4,13.1z"/>
			<path class="st0" d="M28.6,7.5c-0.4,0-0.8,0-1.1-0.1c-0.1,0-0.3,0-0.4-0.1c-1-0.4-2-0.4-3.1-0.1c-0.2,0.1-0.3,0.1-0.5,0.1
				c-1.1-0.1-2.2-0.1-3.3-0.2c-0.1,0-0.2,0-0.3,0c0.5-1.3,2.6-2.6,4-2.7c-0.1,0.5-0.2,1-0.4,1.4c-0.1,0.4,0.2,0.6,0.4,0.7
				c0.2,0.1,0.6,0,0.9,0c0.1,0,0.2-0.2,0.2-0.2c0.6,0.1,0.9-0.4,1.3-0.6c0.4-0.2,0.9-0.2,1.4-0.1c-0.4,0.1-0.8,0.3-1.2,0.4
				c0,0.1,0,0.1,0,0.2c0.8,0,1.6,0,2.4,0C28.8,6.6,28.7,7.1,28.6,7.5z M21.9,6c0,0,0,0.1,0,0.1c0.4-0.1,0.9,0.3,1.4-0.1
				C22.8,6,22.3,6,21.9,6z"/>
			<path class="st0" d="M67.6,13c0,1.4,0,2.6,0,3.9c-1,0-1.9,0-2.9,0c0-1.1,0-2.3,0-3.4c0-0.2,0.4-0.5,0.5-0.4
				c0.4,0.1,0.9-0.3,1.4,0.1C66.8,13.3,67.2,13.1,67.6,13z"/>
			<path class="st0" d="M2.8,4.7c0,0.4,0,0.8,0,1.2C2.5,5.9,2.2,6,1.9,6.1c0,0.1,0,0.1,0,0.2c0.1,0,0.3,0,0.4,0c0.1,0,0.3,0,0.4-0.1
				c0,0,0,0.1,0,0.1c0.1,1.1,0.1,1.1-0.9,1.4C1.2,7.8,0.5,8-0.3,8.2c0.1-0.4,0.1-0.7,0.2-1c-0.3-0.1-0.1-0.5-0.1-0.7
				C-0.2,6.3,0,6,0.1,5.8c-0.1,0-0.2,0-0.3,0c0-0.3,0-0.7,0-1.1c1-0.3,1.9-0.6,2.9-0.9c0,0.2,0,0.4,0,0.6C2.1,4.6,1.5,4.8,0.8,5
				c0,0.1,0,0.1,0,0.2C1.5,5,2.1,4.8,2.8,4.7z"/>
			<path class="st0" d="M67.5,8.4c0,0.3,0,0.8,0.1,1.3c-0.2,0-0.4,0-0.6,0.1c0,0,0,0.1,0,0.1c0.2,0,0.4,0.1,0.6,0.1
				c0,0.4,0,0.8,0,1.3c-1-0.3-1.9-0.6-2.9-0.8c-0.3-1.6-0.3-1.9-0.1-2c-0.1-0.1-0.3-0.2-0.5-0.4c0.2-0.1,0.3-0.1,0.5-0.2
				c-0.4-0.1-1-0.1-0.8-0.7c0.8,0,1.6,0.1,2.3,0.1c0,0,0,0.1,0,0.1c-0.2,0-0.4,0.1-0.7,0.1c0.1,0.1,0.2,0.1,0.2,0.2
				c-0.3,0.2-0.7-0.7-1,0.1C65.6,7.9,66.5,8.1,67.5,8.4z"/>
			<path class="st0" d="M72.1,9.3c-0.3,1.1-0.4,2.2,0.3,3.4c-0.8-0.3-1.5-0.5-2.3-0.7c0.1-0.1,0.1-0.2,0.1-0.3c0,0,0.1-0.1,0.1-0.1
				c0.2,0.1,0.4,0.2,0.6,0.3c-0.2-0.6-0.6-0.6-1-0.6c-0.1,0-0.1,0-0.2,0c-0.7,0.4-0.8,0.3-0.8-0.5c0-0.7,0.1-1.5,0.2-2.3
				C70.2,8.9,71.1,9.1,72.1,9.3z"/>
			<path class="st0" d="M32.2,7.2c-0.8,0-1.6,0-2.4,0c0,0.1,0,0.1,0,0.2c0.7,0.3,1.6,0.1,2.4,0.3c0,0.1,0,0.1,0,0.2
				c-1,0-2.1-0.1-3.2-0.1c0.4-1,0.6-2,0.2-3c1,0,2,0,3,0C32.2,5.5,32.2,6.4,32.2,7.2z"/>
			<path class="st0" d="M17.3,1.2c0,0.6,0,1.1,0,1.7c0,0.1-0.2,0.3-0.3,0.4c-0.5,0.4-1.1,0.7-1.6,1.1c0-0.2,0-0.4,0-0.6
				c-0.1-0.3-0.1-0.6-0.2-0.9c0,0,0-0.1-0.1-0.1c-0.5-0.1-0.9-0.4-1.4-0.4c-0.6,0-1.1,0.2-1.7,0.3c0.1-0.3,0.2-0.6,0.3-0.9
				c0.1-0.1,0.3-0.2,0.5-0.2c0.8-0.1,1.6-0.1,2.4-0.1C15.9,1.3,16.5,1.3,17.3,1.2z"/>
			<path class="st0" d="M59.6,17c-1,0-1.9,0-2.9,0c0-0.8,0-1.5,0-2.3c0.9-0.3,1.9-0.5,2.9-0.8C59.6,15,59.6,15.9,59.6,17z"/>
			<path class="st0" d="M56.4,20c0,0.9,0,1.7,0,2.6c-1,0-1.9,0-2.9,0c0-0.8,0-1.7,0-2.6C54.5,20,55.4,20,56.4,20z"/>
			<path class="st0" d="M65.1,5.9c-0.8-0.1-1.6-0.3-2.5-0.5c0.2-0.1,0.2-0.2,0.3-0.2c-0.1-0.2-0.9-0.1-1,0.1c0,0.1-0.1,0.1-0.1,0.1
				c-0.5-0.1-1-0.2-1.6-0.3c0.6-0.5,1.3-0.7,2-0.8c0.8-0.1,1.7-0.1,2.4,0.3c0.1,0,0.2,0.2,0.3,0.3c0.1,0.1,0.2,0.1,0.3,0.1
				C65.5,5,65.8,5.1,66,5.3c-0.3,0-0.7,0.1-1,0.1c0.7,0.2,1.6,0.1,2,1.1c-1.9,0-3.8,0-5.7,0c0-0.1,0-0.1,0-0.2
				C62.6,6.6,63.8,6.2,65.1,5.9z"/>
			<path class="st0" d="M14.3,10.5C14.2,10,14.2,10,14.8,10c0.4,0,0.8-0.1,1.2-0.2c0.1,0,0.3-0.2,0.4-0.4c-0.6,0-1.1,0.1-1.6,0.1
				c-0.5,0.1-0.6,0-0.6-0.5c0-0.4,0-0.9,0-1.4c1,0.1,2,0.1,3,0.2c0,0.9,0,1.7,0,2.6C16.3,10.5,15.3,10.5,14.3,10.5z"/>
			<path class="st0" d="M5,9.9c0.2-0.1,0.4-0.2,0.5-0.2c0,0,0-0.1,0-0.1c-0.2,0-0.4,0.1-0.6,0.1C4.8,9.5,4.8,9.4,4.7,9.2
				C5.5,9,6.2,8.8,7,8.5c0-0.1,0-0.1,0-0.2C6.2,8.6,5.4,8.8,4.7,9c0,0,0-0.1-0.1-0.1c0.1-0.1,0.1-0.1,0.2-0.2
				c-0.1,0-0.2-0.1-0.3-0.1c0.1-0.1,0.1-0.1,0.1-0.1C5.3,8.3,6.1,8.1,6.8,8c0.1,0,0.2,0.1,0.3,0.2c0.1,0.2,0.2,0.4,0.2,0.7
				C7,9.1,6.6,9.2,6.2,9.4c0.1,0.4,0.6,0.5,0.6,0.4c0-0.6,0.5-0.2,0.6-0.5c0.1,0.2,0.2,0.3,0.2,0.5C7.3,9.8,6.9,9.9,6.5,10
				c0,0.1,0,0.1,0,0.2c0.4-0.1,0.8-0.1,1.2-0.2c0.1,0.2,0.1,0.4,0.3,0.7c-0.4,0-0.8,0-1.2,0.1c-0.3,0-0.6,0-0.8,0.1
				c-0.5,0.1-0.7,0.1-0.9-0.4C5.1,10.3,5,10.1,5,9.9z"/>
			<path class="st0" d="M13.8,5c-0.2,0.5-0.3,1.1-0.6,1.6c-0.1,0.2-0.5,0.5-0.7,0.5c-0.7,0.1-1.4,0-2.2,0c0.2-0.3,0.3-0.5,0.5-0.8
				c0-0.1,0.1-0.1,0.1-0.2c0-0.8,0.2-1.1,1-1.1C12.5,5.1,13.1,5,13.8,5z M11.3,6.1c0,0.1,0,0.2,0.1,0.3c0.4-0.1,0.7-0.2,1.1-0.3
				c0-0.1,0-0.1,0-0.2C12.1,6,11.7,6,11.3,6.1z"/>
			<path class="st0" d="M57.2,11.4c0.4,0,0.8,0,1.2,0c0.4,0.1,0.8,0.2,1.1,0.3c0.1,0,0.2,0.2,0.2,0.3c0.1,0.9,0.1,0.9-0.7,1.1
				c-0.7,0.2-1.4,0.3-2.2,0.5c0-0.6,0.1-1.2,0.1-1.8c0.3,0,0.5,0,0.7,0c0,0,0-0.1,0-0.1c-0.2-0.1-0.3-0.2-0.5-0.3
				C57.1,11.5,57.1,11.5,57.2,11.4z"/>
			<path class="st0" d="M11.4,9.2c-0.1-0.1-0.2-0.1-0.3-0.2c0.2-0.1,0.3-0.1,0.5-0.2c0,0,0-0.1,0-0.1C11.1,8.8,10.5,8.9,9.8,9
				c0.2,0.1,0.3,0.2,0.4,0.3c-0.2,0-0.3,0-0.6,0.1c0.2-0.6,0.3-1,0.5-1.5c0-0.1,0.2-0.2,0.4-0.2c0.8,0,1.6,0,2.4,0
				c-0.3,0.5-0.1,1.1-1,1.3C12.2,8.9,12.3,9,12.4,9c-0.1,0.3-0.8,0.6-1.9,0.6C10.9,9.5,11.1,9.4,11.4,9.2z"/>
			<path class="st0" d="M69.8,12.5c0.1,0,0.3,0,0.4,0c0.7,0.1,1.3,0.3,2,0.4c0.1,0,0.3,0.1,0.4,0.2c0.1,0.1,0.2,0.3,0.3,0.4
				c-0.1,0.1-0.3,0.2-0.4,0.2c-0.5,0.1-1,0.3-1.5,0.4c-0.6,0.1-1.1-0.4-1.1-1C69.8,13,69.8,12.8,69.8,12.5z"/>
			<path class="st0" d="M14.3,6.9c0-0.3,0-0.6,0-1c0.8-0.1,1.7-0.2,2.6-0.3C17,6,17.2,6.4,17.4,6.9C16.3,6.9,15.3,6.9,14.3,6.9z"/>
			<path class="st0" d="M79.3,16.9c0-0.5,0-0.9,0-1.4c1,0.2,1.9,0.4,2.9,0.7c0,0.2,0,0.4,0,0.7C81.3,16.9,80.3,16.9,79.3,16.9z"/>
			<path class="st0" d="M81.4,5.5c0,0,0.1,0.1,0.2,0.1c-0.5,0-0.9,0-1.4-0.1c0,0.1,0,0.1,0,0.2c0.2,0,0.5,0.1,0.7,0.1
				c0,0,0,0.1,0,0.1c-0.1,0-0.3,0.1-0.4,0.1c-0.2,0-0.3-0.1-0.5-0.2c-0.1-0.5-0.5-0.1-0.7-0.3c0-0.2,0-0.6,0-0.9c1,0,1.9,0,2.9,0
				c0,0.2,0,0.4,0,0.7C82,5.4,81.7,5.4,81.4,5.5C81.4,5.4,81.4,5.5,81.4,5.5z"/>
			<path class="st0" d="M78.8,13.9c1.1,0.1,2.2,0.2,3.4,0.4c0,0.4,0,0.7,0,1.2c-0.2,0-0.4,0-0.6-0.1c-0.8-0.2-1.5-0.5-2.3-0.8
				C79.2,14.5,79,14.2,78.8,13.9C78.8,13.9,78.8,13.9,78.8,13.9z"/>
			<path class="st0" d="M57.2,11.2c0-0.2-0.1-0.5-0.1-0.7c0.4-0.3,1,0.4,1.3-0.3c-0.3,0-0.7,0-1-0.1c-0.2-0.1-0.6,0.1-0.8-0.1
				c0-0.1,0-0.1,0.1-0.2c0.8,0.1,1.6,0.3,2.4,0.4c0.5,0.1,0.6,0.3,0.6,0.7c0,0.1,0,0.3,0,0.3C58.8,11.2,58,11.2,57.2,11.2z"/>
			<path class="st0" d="M24.5,4.2c0.8,0.1,1.6,0.2,2.3,0.3c0,0.1,0,0.1,0,0.2c-0.2,0.1-0.5,0.3-0.8,0.4c-0.5,0.2-1,0.5-1.5,0.7
				c-0.2,0.1-0.6,0.1-0.4-0.3C24.3,5,24.4,4.6,24.5,4.2z"/>
			<path class="st0" d="M2.8,7.9c0.1,0.4,0,0.6-0.4,0.7C1.9,8.7,1.5,8.8,1,9C0.7,9.1,0.3,9.2-0.2,9.4c0-0.3-0.1-0.8,0-0.9
				c0.3-0.2,0.7-0.4,1.1-0.4c0.3,0,0.6,0.2,0.9-0.1C2,7.8,2.4,7.9,2.8,7.9z"/>
			<path class="st0" d="M13.7,1c0.1-0.1,0.2-0.2,0.4-0.3c-0.3,0-0.5,0-0.7,0c0-0.1,0-0.1,0-0.2c1.3-0.4,2.6-0.1,3.9-0.2
				c-0.2,0.5-0.5,0.2-0.7,0.4C16.6,0.8,16.4,1,16.3,1C15.4,1,14.5,1,13.7,1z"/>
			<path class="st0" d="M72.9,8c-0.3,1.1-1.1,0.7-1.8,0.7c-0.6,0-1.2-0.2-1.8-0.3C69.4,8,69.4,8,70,8c0.5,0.1,0.9,0.1,1.4-0.1
				C71.8,7.8,72.3,8,72.9,8z"/>
			<path class="st0" d="M46.7,9.4c0.2,0.7,0.1,0.8-0.5,0.8c-0.8,0-1.6-0.1-2.4-0.2c0-0.2-0.1-0.3-0.2-0.5
				C44.7,9.4,45.7,9.4,46.7,9.4z"/>
			<path class="st0" d="M11.1,4.9c0.4-1.1,1.3-1,2.1-1.3c-0.1-0.1-0.2-0.1-0.4-0.3c0.4,0,0.6,0,0.9,0c0.1,0.3,0.2,0.6,0.4,1
				c0,0-0.2,0.2-0.3,0.2c-0.2,0-0.4-0.2-0.5-0.2c-0.2,0-0.3-0.1-0.5-0.1c-0.2,0-0.3,0.1-0.5,0.2c-0.2,0.1-0.5,0-0.6,0.4
				C11.6,4.9,11.3,4.9,11.1,4.9z"/>
			<path class="st0" d="M52,8.6c-0.1,0.3-0.1,0.4-0.2,0.6c-0.6,0-1.2,0-1.7,0c0,0,0-0.1,0-0.1c0.2,0,0.3,0,0.6-0.1
				c-0.4-0.1-0.7-0.3-1-0.4c0.2,0.4,0.2,0.4-0.9,0.6c0-0.2,0-0.4,0-0.7C49.9,8.5,50.9,8.6,52,8.6z"/>
			<path class="st0" d="M43.1,8.6c0.8,0,1.5,0,2.2,0c0,0,0.1,0,0.1,0c0.3,0.6,0.8,0.5,1.2,0.5c-1,0-2.1,0-3.1,0
				C43.5,9.1,43.3,8.7,43.1,8.6z"/>
			<path class="st0" d="M67.4,12c-0.9,0.1-1.8,0.2-2.8,0.2c0-0.2,0-0.4,0-0.5c0.2,0,0.4-0.1,0.7-0.1c-0.3-0.1-0.5-0.2-0.7-0.3
				c0,0,0-0.1,0-0.1c0.9,0.2,1.8,0.5,2.8,0.7C67.5,11.9,67.5,11.9,67.4,12z"/>
			<path class="st0" d="M48.8,10.2c0-0.3,0-0.5,0-0.7c0.3,0.1,0.6,0.2,0.9,0.2c0.3,0,0.4-0.1,0.3,0.3c0.1,0,0.2,0.1,0.3,0.1
				c0.3,0,0.7-0.1,1-0.2c0.1,0,0.2-0.1,0.4-0.3c0,0.2,0,0.3,0,0.6C50.7,10.2,49.8,10.2,48.8,10.2z"/>
			<path class="st0" d="M23.4,7.7c-0.2,0.1-0.5,0.2-0.7,0.2c-1-0.1-2-0.2-3.1-0.4c0.1-0.1,0.2-0.2,0.3-0.1c1.1,0.1,2.3,0.1,3.4,0.2
				C23.4,7.6,23.4,7.6,23.4,7.7z"/>
			<path class="st0" d="M32.2,8.5c-1-0.1-2.1-0.1-3.1-0.2c-0.1,0-0.1-0.1-0.2-0.3c1.2,0.1,2.3,0.2,3.3,0.3
				C32.2,8.4,32.2,8.5,32.2,8.5z"/>
			<path class="st0" d="M56.3,5.8c0.8,0.1,1.5,0.2,2.3,0.3c0,0.1,0,0.1,0,0.2c-0.8-0.1-1.6-0.1-2.3-0.2C56.3,6,56.3,5.9,56.3,5.8z"
				/>
			<path class="st0" d="M78.2,8.1c0.8-0.5,1.3,0.1,1.9,0.2C80,8.6,80,8.5,79.7,8.4c-0.3-0.1-0.6,0-1-0.1C78.6,8.3,78.4,8.2,78.2,8.1
				z"/>
			<path class="st0" d="M34.2,7.8c1.1,0,2.2,0.1,3.3,0.1c0,0,0,0,0,0c-1.1,0-2.2,0-3.3,0C34.2,7.9,34.2,7.8,34.2,7.8z"/>
			<path class="st0" d="M32.2,9.3c-0.5-0.1-0.9-0.1-1.3-0.1c0,0,0-0.1,0-0.1c0.4-0.1,0.8-0.1,1.2-0.1C32.1,8.9,32.2,9.1,32.2,9.3z"
				/>
			<path class="st0" d="M61.2,7c-0.1,0-0.3,0-0.4,0.1c0.1,0.1,0.1,0.2,0.2,0.3C60.6,7.2,60.4,7,60,6.8c0.5,0,0.8,0,1.2,0.1
				C61.2,6.9,61.2,7,61.2,7z"/>
			<path class="st0" d="M81.1,6.5c0.4,0,0.7,0,1.1,0c-0.3,0.3-0.7,0.3-1.1,0.1C81.1,6.6,81.1,6.5,81.1,6.5z"/>
			<path class="st0" d="M33.8,8.7c0.3-0.3,0.3-0.4,1.3-0.2C34.7,8.6,34.3,8.6,33.8,8.7z"/>
			<path class="st0" d="M15.7,7.3c0.5,0,1.1,0,1.6,0c0,0,0,0.1,0,0.1C16.7,7.4,16.2,7.3,15.7,7.3C15.7,7.3,15.7,7.3,15.7,7.3z"/>
		</g>
	</g>
</g>
</svg>
