<?xml version="1.0" encoding="UTF-8" standalone="no"?>
<svg width="350" height="190" viewBox="0 0 264.584 243.416" version="1.1" xmlns="http://www.w3.org/2000/svg" xmlns:svg="http://www.w3.org/2000/svg">
  <defs id="defs10"/>
  <rect width="100%" height="100%" fill="#2C3E50" />
  <g transform="translate(65, 65)">
    <path d="M12.321 0l53.861 53.918L120.365 0zM5.155 9.025l60.842 59.673 61.211-59.489-.185 36.835L66.921 70.54l15.164 12.616-8.137 5.986-41.609.184c-4.838-.022-25.877-18.34-27.185-41.255z" fill-opacity=".941" fill="#2d4a5f" id="path2" style="fill:#ffffff;fill-opacity:1"/>
    <path d="M78.385 72.049l53.907-21.679-8.031 57.318-11.845-9.132c-21.727 23.171-45.255 26.289-67.997 20.837S12.281 98.39 5.155 83.8-.67 53.116 2.843 38.769c1.13 10.511-1.313 16.316 6.38 33.612 6.31 11.399 14.413 20.417 25.89 24.956 13.9 6.195 32.247 3.357 41.701-3.039l14.24-12.156z" fill="#00b786" id="path4"/>
  </g>
</svg>
