<?xml version="1.0" encoding="UTF-8"?>
<svg width="368px" height="132px" viewBox="0 0 368 132" version="1.1" xmlns="http://www.w3.org/2000/svg" xmlns:xlink="http://www.w3.org/1999/xlink">
    <!-- Generator: Sketch 53.1 (72631) - https://sketchapp.com -->
    <title>phalcon-logo-transparent-black</title>
    <desc>Created with Sketch.</desc>
    <g id="Page-1" stroke="none" stroke-width="1" fill="none" fill-rule="evenodd">
        <g id="phalcon-logo-transparent-black" fill-rule="nonzero">
            <g id="Group" transform="translate(129.000000, 43.000000)" fill="#FFFFFF">
                <path d="M10.9,63.2 C10.9,66.6 9.2,68.3 5.8,68.3 L0.6,68.3 L0.6,29.4 C1.1,17.2 7.5,11.3 19.8,11.3 C32.5,11.3 38.9,18.1 38.9,31.8 C38.9,45.6 33.5,52.8 22.5,53.2 C17.4,53.2 13.5,51.1 10.9,46.9 L10.9,63.2 Z M19.7,44 C25.3,44 28.1,40.1 28.4,32.2 C28.4,24 25.5,19.9 19.6,19.9 C13.7,19.9 10.9,24 11,32.2 C11.3,40.1 14.1,44 19.7,44 Z" id="Shape"></path>
                <path d="M59,20.3 C52.9,20.3 50.2,25.4 50.2,31.6 L50.2,52.4 L40,52.4 L40,0.1 L45.2,0.1 C48.6,0.1 50.3,1.9 50.3,5.3 L50.3,17.5 C55.6,11.5 62,9.8 69.7,12.5 C75.4,14.6 78.1,20 77.8,28.9 L77.8,52.5 L67.6,52.5 L67.6,31.6 C67.6,24.7 64.9,20.3 59,20.3 Z" id="Path"></path>
                <path d="M89.9,22.3 L79.6,22.3 C80.8,14.8 86.2,11.1 95.6,11.1 C106.9,11.1 112.7,14.8 112.9,22.3 L112.9,36.1 C112.9,47.3 106.1,52.3 95,53.1 C85.2,53.9 78.3,49.3 78.3,40.3 C78.5,30.5 85.7,27.9 96.1,26.9 C100.5,26.4 102.8,25.1 102.8,22.8 C102.6,20.5 100.4,19.3 96.1,19.3 C92.5,19.5 90.5,20.4 89.9,22.3 Z M102.9,35.7 L102.9,31.9 C100.5,32.9 97.7,33.7 94.7,34.4 C90.6,35.2 88.5,37.1 88.5,40.1 C88.7,43.3 90.4,44.9 93.7,44.9 C99.4,44.9 102.9,41.5 102.9,35.7 Z" id="Shape"></path>
                <path d="M126,5.1 L126,52.4 L115.7,52.4 L115.7,0.1 L121,0.1 C123.7,0.1 126,2.4 126,5.1 Z" id="Path"></path>
                <path d="M146.8,53.3 C134.4,53.3 128,46.2 127.7,32.2 C127.7,18.3 134,11.3 146.6,11.1 C156.5,11.1 162.4,15.5 164.2,24.3 L153,24.3 C151.8,21.5 149.6,20.1 146.3,20.1 C140.9,20.1 138.2,24.2 138.2,32.3 C138.2,40.4 141.1,44.5 146.8,44.4 C149.2,44.4 151.3,43.4 153,41.5 C154,40.5 155.2,40 156.5,40 L164.3,40 C162.4,48.2 156.3,53.6 146.8,53.3 Z" id="Path"></path>
                <path d="M202.8,32.3 C202.8,46.3 196.5,53.4 184.1,53.4 C171.7,53.4 165.5,46.3 165.5,32.3 C165.5,18.1 171.7,11.2 184.1,11.2 C196.6,11.1 202.8,18.1 202.8,32.3 Z M176,32.3 C176.1,40.2 178.8,44.2 184.1,44.2 C189.4,44.2 192,40 192.1,32 C192.1,24.1 189.5,20.2 184.2,20.2 C178.7,20.1 176,24.2 176,32.3 Z" id="Shape"></path>
                <path d="M233.7,52.4 C230.3,52.2 228.6,50.6 228.6,47.3 L228.6,26.4 C228.4,22.2 226,20.1 221.5,20.1 C216.9,20.1 214.6,22.2 214.5,26.4 L214.5,52.4 L204,52.4 L204,28.5 C204,16.9 209.9,11.1 221.6,11.1 C233.3,11.1 239,16.9 239,28.5 L239,52.4 L233.7,52.4 Z" id="Path"></path>
            </g>
            <g id="Group">
                <polygon id="Path" fill="#ACD2B4" points="49.4 77.8 43.3 80.7 55.9 79.7 58.3 77.8 57.6 76.6"></polygon>
                <polygon id="Path" fill="#3A3A3A" points="68.5 116.7 70.7 111.8 76.7 114.6 76.7 116.4 72.6 114.7 72.1 115.6 75.9 117.5 77.5 121.4 73.7 118.2 72.9 118.2 73.7 128 68.9 122.4"></polygon>
                <polygon id="Path" fill="#8FC19A" points="61.8 95.6 62.7 111 69.6 117.7 69.6 122.3 63.4 124.9 59.6 118.1 59.6 98.2 61.2 95.1"></polygon>
                <polygon id="Path" fill="#3A3A3A" points="75.9 100.5 78.2 94.9 84.2 97.7 84.2 99.6 80.2 97.8 79.7 98.7 83.3 100.5 85 104.6 81.4 101.3 80.6 101.3 81.3 111 76.1 105"></polygon>
                <polygon id="Path" fill="#678A6F" points="71.5 94.5 73.1 98.7 76.7 101.1 76.7 104.8 66.7 108.6 63.2 101.2 62.4 96.4 64.7 94.9"></polygon>
                <polygon id="Path" fill="#3A3A3A" points="34.7 100.5 34.7 112.7 39.4 128.8 39.4 120.3 50.6 93 63.4 84.4 53.5 81.8"></polygon>
                <path d="M95,82.1 C94.8,82.1 82.9,85.1 82.9,85.1 L71.1,94.9 L64.7,94.9 L84.2,82.1 L95,82.1 Z" id="Path" fill="#3A3A3A"></path>
                <polygon id="Path" fill="#79A281" points="100.1 70.7 110.9 73.8 115.7 81.5 110 84.5 88.8 75.8 88.3 69.9"></polygon>
                <polygon id="Path" fill="#3A3A3A" points="113.6 81.4 110.8 79.8 108.9 81.2 108.7 80.9 110.8 79.3 113.8 81"></polygon>
                <polygon id="Path" fill="#8FC19A" points="64.2 61.3 86.9 67 86.9 80.1 78.2 76.8 61.2 68.1"></polygon>
                <polygon id="Path" fill="#7AA383" points="82.6 44.1 92.5 63.6 82.3 53.5"></polygon>
                <polygon id="Path" fill="#CCE2D2" points="88.8 67.4 82.7 41.2 34.6 0 41.7 19.6 69.7 46.6"></polygon>
                <polygon id="Path" fill="#ACD2B4" points="32.3 10.4 33.9 20.1 51.4 40.1 69.7 46.6"></polygon>
                <polygon id="Path" fill="#393839" points="9.6 41.8 29.1 47.1 44.9 62.7 28.1 57.7 23.7 54.7"></polygon>
                <polygon id="Path" fill="#ACD2B4" points="27.2 65.7 61.1 72.1 60.7 75.4 42 73.7"></polygon>
                <polygon id="Path" fill="#678A6F" points="36.7 74.6 61.4 75.5 85.5 77.5 88.3 82.7 82.3 81.6 69.2 80.4 59.7 76.8 55.7 79 48.2 78.3"></polygon>
                <polygon id="Path" fill="#CCE1D1" points="18.1 54.5 59.1 67 78.2 76.8 60.7 75.4 38.4 68.7"></polygon>
                <polygon id="Path" fill="#78A381" points="2.6 24.4 14 40.6 30.5 53.3 44.9 62.7 61.2 68.1 64.2 61.3"></polygon>
                <polygon id="Path" fill="#393839" points="0 10.4 17.9 34.9 64.2 61.3 88.8 67.4 69.7 46.6"></polygon>
                <polygon id="Path" fill="#CCE1D1" points="86.9 67 88.8 67.4 88.8 67.8 100.1 70.7 90.3 72.1 98.1 75.4 90.3 75.6 102.6 80.5 110 84.5 110.4 86.2 98.7 82.1 88.3 82.1 86.9 80"></polygon>
                <polygon id="Path" fill="#3A3A3A" points="115.7 81.5 115.7 88.2 112.7 90.8 109.6 90.8 111 88.4 110 84.5"></polygon>
                <polygon id="Path" fill="#CDE3D2" points="84.2 82.1 59.6 98.2 57.5 95.1 49.4 112.4 51.6 115.2 51.1 115.9 52.7 131.9 42.5 112.5 51.2 91.9 69.2 80.4 84.2 82"></polygon>
                <polygon id="Path" fill="#8FC19A" points="59.7 76.8 69.2 80.4 34.7 102 27.2 110.9 29.8 101.2 37.6 90.5"></polygon>
                <polygon id="Path" fill="#78A381" points="59.6 98.2 59.6 122.5 62.7 130.2 49.4 112.4 57.5 95.1"></polygon>
                <polygon id="Path" fill="#3A3A3A" points="32.1 90.6 25.7 95.8 25.7 99.2"></polygon>
                <polygon id="Path" fill="#678A6F" points="31 114.8 32.3 117.9 33.4 124.6 31 123.1"></polygon>
            </g>
        </g>
    </g>
</svg>