<svg height="132" viewBox="0 0 368 132" width="368" xmlns="http://www.w3.org/2000/svg"><g fill="none"><g fill="#fff" transform="translate(129 43)"><path d="m10.9 63.2c0 3.4-1.7 5.1-5.1 5.1h-5.2v-38.9c.5-12.2 6.9-18.1 19.2-18.1 12.7 0 19.1 6.8 19.1 20.5 0 13.8-5.4 21-16.4 21.4-5.1 0-9-2.1-11.6-6.3zm8.8-19.2c5.6 0 8.4-3.9 8.7-11.8 0-8.2-2.9-12.3-8.8-12.3s-8.7 4.1-8.6 12.3c.3 7.9 3.1 11.8 8.7 11.8z"/><path d="m59 20.3c-6.1 0-8.8 5.1-8.8 11.3v20.8h-10.2v-52.3h5.2c3.4 0 5.1 1.8 5.1 5.2v12.2c5.3-6 11.7-7.7 19.4-5 5.7 2.1 8.4 7.5 8.1 16.4v23.6h-10.2v-20.9c0-6.9-2.7-11.3-8.6-11.3z"/><path d="m89.9 22.3h-10.3c1.2-7.5 6.6-11.2 16-11.2 11.3 0 17.1 3.7 17.3 11.2v13.8c0 11.2-6.8 16.2-17.9 17-9.8.8-16.7-3.8-16.7-12.8.2-9.8 7.4-12.4 17.8-13.4 4.4-.5 6.7-1.8 6.7-4.1-.2-2.3-2.4-3.5-6.7-3.5-3.6.2-5.6 1.1-6.2 3zm13 13.4v-3.8c-2.4 1-5.2 1.8-8.2 2.5-4.1.8-6.2 2.7-6.2 5.7.2 3.2 1.9 4.8 5.2 4.8 5.7 0 9.2-3.4 9.2-9.2z"/><path d="m126 5.1v47.3h-10.3v-52.3h5.3c2.7 0 5 2.3 5 5z"/><path d="m146.8 53.3c-12.4 0-18.8-7.1-19.1-21.1 0-13.9 6.3-20.9 18.9-21.1 9.9 0 15.8 4.4 17.6 13.2h-11.2c-1.2-2.8-3.4-4.2-6.7-4.2-5.4 0-8.1 4.1-8.1 12.2s2.9 12.2 8.6 12.1c2.4 0 4.5-1 6.2-2.9 1-1 2.2-1.5 3.5-1.5h7.8c-1.9 8.2-8 13.6-17.5 13.3z"/><path d="m202.8 32.3c0 14-6.3 21.1-18.7 21.1s-18.6-7.1-18.6-21.1c0-14.2 6.2-21.1 18.6-21.1 12.5-.1 18.7 6.9 18.7 21.1zm-26.8 0c.1 7.9 2.8 11.9 8.1 11.9s7.9-4.2 8-12.2c0-7.9-2.6-11.8-7.9-11.8-5.5-.1-8.2 4-8.2 12.1z"/><path d="m233.7 52.4c-3.4-.2-5.1-1.8-5.1-5.1v-20.9c-.2-4.2-2.6-6.3-7.1-6.3-4.6 0-6.9 2.1-7 6.3v26h-10.5v-23.9c0-11.6 5.9-17.4 17.6-17.4s17.4 5.8 17.4 17.4v23.9z"/></g><path d="m49.4 77.8-6.1 2.9 12.6-1 2.4-1.9-.7-1.2z" fill="#acd2b4"/><path d="m68.5 116.7 2.2-4.9 6 2.8v1.8l-4.1-1.7-.5.9 3.8 1.9 1.6 3.9-3.8-3.2h-.8l.8 9.8-4.8-5.6z" fill="#3a3a3a"/><path d="m61.8 95.6.9 15.4 6.9 6.7v4.6l-6.2 2.6-3.8-6.8v-19.9l1.6-3.1z" fill="#8fc19a"/><path d="m75.9 100.5 2.3-5.6 6 2.8v1.9l-4-1.8-.5.9 3.6 1.8 1.7 4.1-3.6-3.3h-.8l.7 9.7-5.2-6z" fill="#3a3a3a"/><path d="m71.5 94.5 1.6 4.2 3.6 2.4v3.7l-10 3.8-3.5-7.4-.8-4.8 2.3-1.5z" fill="#678a6f"/><path d="m34.7 100.5v12.2l4.7 16.1v-8.5l11.2-27.3 12.8-8.6-9.9-2.6z" fill="#3a3a3a"/><path d="m95 82.1c-.2 0-12.1 3-12.1 3l-11.8 9.8h-6.4l19.5-12.8z" fill="#3a3a3a"/><path d="m100.1 70.7 10.8 3.1 4.8 7.7-5.7 3-21.2-8.7-.5-5.9z" fill="#79a281"/><path d="m113.6 81.4-2.8-1.6-1.9 1.4-.2-.3 2.1-1.6 3 1.7z" fill="#3a3a3a"/><path d="m64.2 61.3 22.7 5.7v13.1l-8.7-3.3-17-8.7z" fill="#8fc19a"/><path d="m82.6 44.1 9.9 19.5-10.2-10.1z" fill="#7aa383"/><path d="m88.8 67.4-6.1-26.2-48.1-41.2 7.1 19.6 28 27z" fill="#cce2d2"/><path d="m32.3 10.4 1.6 9.7 17.5 20 18.3 6.5z" fill="#acd2b4"/><path d="m9.6 41.8 19.5 5.3 15.8 15.6-16.8-5-4.4-3z" fill="#393839"/><path d="m27.2 65.7 33.9 6.4-.4 3.3-18.7-1.7z" fill="#acd2b4"/><path d="m36.7 74.6 24.7.9 24.1 2 2.8 5.2-6-1.1-13.1-1.2-9.5-3.6-4 2.2-7.5-.7z" fill="#678a6f"/><path d="m18.1 54.5 41 12.5 19.1 9.8-17.5-1.4-22.3-6.7z" fill="#cce1d1"/><path d="m2.6 24.4 11.4 16.2 16.5 12.7 14.4 9.4 16.3 5.4 3-6.8z" fill="#78a381"/><path d="m0 10.4 17.9 24.5 46.3 26.4 24.6 6.1-19.1-20.8z" fill="#393839"/><path d="m86.9 67 1.9.4v.4l11.3 2.9-9.8 1.4 7.8 3.3-7.8.2 12.3 4.9 7.4 4 .4 1.7-11.7-4.1h-10.4l-1.4-2.1z" fill="#cce1d1"/><path d="m115.7 81.5v6.7l-3 2.6h-3.1l1.4-2.4-1-3.9z" fill="#3a3a3a"/><path d="m84.2 82.1-24.6 16.1-2.1-3.1-8.1 17.3 2.2 2.8-.5.7 1.6 16-10.2-19.4 8.7-20.6 18-11.5 15 1.6z" fill="#cde3d2"/><path d="m59.7 76.8 9.5 3.6-34.5 21.6-7.5 8.9 2.6-9.7 7.8-10.7z" fill="#8fc19a"/><path d="m59.6 98.2v24.3l3.1 7.7-13.3-17.8 8.1-17.3z" fill="#78a381"/><path d="m32.1 90.6-6.4 5.2v3.4z" fill="#3a3a3a"/><path d="m31 114.8 1.3 3.1 1.1 6.7-2.4-1.5z" fill="#678a6f"/></g></svg>