<!-- Generator: Adobe Illustrator 21.1.0, SVG Export Plug-In . SVG Version: 6.00 Build 0)  -->
<svg version="1.1" id="Layer_1" xmlns="http://www.w3.org/2000/svg" xmlns:xlink="http://www.w3.org/1999/xlink" x="0px" y="0px"
	 viewBox="0 0 368 132" style="enable-background:new 0 0 368 132;" xml:space="preserve">
<style type="text/css">
	.st0{fill:#78A381;}
	.st1{fill:#ACD2B4;}
	.st2{fill:#3A3A3A;}
	.st3{fill:#8FC19A;}
	.st4{fill:#678A6F;}
	.st5{fill:#79A281;}
	.st6{fill:#7AA383;}
	.st7{fill:#CCE2D2;}
	.st8{fill:#393839;}
	.st9{fill:#CCE1D1;}
	.st10{fill:#CDE3D2;}
	.st11{fill:#5e6977}
</style>
<g> 
	<g>
		<path class="st11" d="M139.9,106.2c0,3.4-1.7,5.1-5.1,5.1h-5.2V72.4c0.5-12.2,6.9-18.1,19.2-18.1c12.7,0,19.1,6.8,19.1,20.5
			c0,13.8-5.4,21-16.4,21.4c-5.1,0-9-2.1-11.6-6.3V106.2z M148.7,87c5.6,0,8.4-3.9,8.7-11.8c0-8.2-2.9-12.3-8.8-12.3
			c-5.9,0-8.7,4.1-8.6,12.3C140.3,83.1,143.1,87,148.7,87z"/>
		<path class="st11" d="M188,63.3c-6.1,0-8.8,5.1-8.8,11.3v20.8H169V43.1h5.2c3.4,0,5.1,1.8,5.1,5.2v12.2c5.3-6,11.7-7.7,19.4-5
			c5.7,2.1,8.4,7.5,8.1,16.4v23.6h-10.2V74.6C196.6,67.7,193.9,63.3,188,63.3z"/>
		<path class="st11" d="M218.9,65.3h-10.3c1.2-7.5,6.6-11.2,16-11.2c11.3,0,17.1,3.7,17.3,11.2v13.8c0,11.2-6.8,16.2-17.9,17
			c-9.8,0.8-16.7-3.8-16.7-12.8c0.2-9.8,7.4-12.4,17.8-13.4c4.4-0.5,6.7-1.8,6.7-4.1c-0.2-2.3-2.4-3.5-6.7-3.5
			C221.5,62.5,219.5,63.4,218.9,65.3z M231.9,78.7v-3.8c-2.4,1-5.2,1.8-8.2,2.5c-4.1,0.8-6.2,2.7-6.2,5.7c0.2,3.2,1.9,4.8,5.2,4.8
			C228.4,87.9,231.9,84.5,231.9,78.7z"/>
		<path class="st11" d="M255,48.1v47.3h-10.3V43.1h5.3C252.7,43.1,255,45.4,255,48.1z"/>
		<path class="st11" d="M275.8,96.3c-12.4,0-18.8-7.1-19.1-21.1c0-13.9,6.3-20.9,18.9-21.1c9.9,0,15.8,4.4,17.6,13.2H282
			c-1.2-2.8-3.4-4.2-6.7-4.2c-5.4,0-8.1,4.1-8.1,12.2s2.9,12.2,8.6,12.1c2.4,0,4.5-1,6.2-2.9c1-1,2.2-1.5,3.5-1.5h7.8
			C291.4,91.2,285.3,96.6,275.8,96.3z"/>
		<path class="st11" d="M331.8,75.3c0,14-6.3,21.1-18.7,21.1c-12.4,0-18.6-7.1-18.6-21.1c0-14.2,6.2-21.1,18.6-21.1
			C325.6,54.1,331.8,61.1,331.8,75.3z M305,75.3c0.1,7.9,2.8,11.9,8.1,11.9c5.3,0,7.9-4.2,8-12.2c0-7.9-2.6-11.8-7.9-11.8
			C307.7,63.1,305,67.2,305,75.3z"/>
		<path class="st11" d="M362.7,95.4c-3.4-0.2-5.1-1.8-5.1-5.1V69.4c-0.2-4.2-2.6-6.3-7.1-6.3c-4.6,0-6.9,2.1-7,6.3v26H333V71.5
			c0-11.6,5.9-17.4,17.6-17.4c11.7,0,17.4,5.8,17.4,17.4v23.9H362.7z"/>
	</g>
	<g>
		<g>
			<polygon class="st1" points="49.4,77.8 43.3,80.7 55.9,79.7 58.3,77.8 57.6,76.6 			"/>
		</g>
		<g>
			<polygon class="st2" points="68.5,116.7 70.7,111.8 76.7,114.6 76.7,116.4 72.6,114.7 72.1,115.6 75.9,117.5 77.5,121.4 
				73.7,118.2 72.9,118.2 73.7,128 68.9,122.4 			"/>
		</g>
		<g>
			<polygon class="st3" points="61.8,95.6 62.7,111 69.6,117.7 69.6,122.3 63.4,124.9 59.6,118.1 59.6,98.2 61.2,95.1 			"/>
		</g>
		<g>
			<polygon class="st2" points="75.9,100.5 78.2,94.9 84.2,97.7 84.2,99.6 80.2,97.8 79.7,98.7 83.3,100.5 85,104.6 81.4,101.3 
				80.6,101.3 81.3,111 76.1,105 			"/>
		</g>
		<g>
			<polygon class="st4" points="71.5,94.5 73.1,98.7 76.7,101.1 76.7,104.8 66.7,108.6 63.2,101.2 62.4,96.4 64.7,94.9 			"/>
		</g>
		<g>
			<polygon class="st2" points="34.7,100.5 34.7,112.7 39.4,128.8 39.4,120.3 50.6,93 63.4,84.4 53.5,81.8 			"/>
		</g>
		<g>
			<path class="st2" d="M95,82.1c-0.2,0-12.1,3-12.1,3l-11.8,9.8h-6.4l19.5-12.8H95z"/>
		</g>
		<g>
			<polygon class="st5" points="100.1,70.7 110.9,73.8 115.7,81.5 110,84.5 88.8,75.8 88.3,69.9 			"/>
		</g>
		<g>
			<polygon class="st2" points="113.6,81.4 110.8,79.8 108.9,81.2 108.7,80.9 110.8,79.3 113.8,81 			"/>
		</g>
		<g>
			<polygon class="st3" points="64.2,61.3 86.9,67 86.9,80.1 78.2,76.8 61.2,68.1 			"/>
		</g>
		<g>
			<polygon class="st6" points="82.6,44.1 92.5,63.6 82.3,53.5 			"/>
		</g>
		<g>
			<polygon class="st7" points="88.8,67.4 82.7,41.2 34.6,0 41.7,19.6 69.7,46.6 			"/>
		</g>
		<g>
			<polygon class="st1" points="32.3,10.4 33.9,20.1 51.4,40.1 69.7,46.6 			"/>
		</g>
		<g>
			<polygon class="st8" points="9.6,41.8 29.1,47.1 44.9,62.7 28.1,57.7 23.7,54.7 			"/>
		</g>
		<g>
			<polygon class="st1" points="27.2,65.7 61.1,72.1 60.7,75.4 42,73.7 			"/>
		</g>
		<g>
			<polygon class="st4" points="36.7,74.6 61.4,75.5 85.5,77.5 88.3,82.7 82.3,81.6 69.2,80.4 59.7,76.8 55.7,79 48.2,78.3 			"/>
		</g>
		<g>
			<polygon class="st9" points="18.1,54.5 59.1,67 78.2,76.8 60.7,75.4 38.4,68.7 			"/>
		</g>
		<g>
			<polygon class="st0" points="2.6,24.4 14,40.6 30.5,53.3 44.9,62.7 61.2,68.1 64.2,61.3 			"/>
		</g>
		<g>
			<polygon class="st8" points="0,10.4 17.9,34.9 64.2,61.3 88.8,67.4 69.7,46.6 			"/>
		</g>
		<g>
			<polygon class="st9" points="86.9,67 88.8,67.4 88.8,67.8 100.1,70.7 90.3,72.1 98.1,75.4 90.3,75.6 102.6,80.5 110,84.5 
				110.4,86.2 98.7,82.1 88.3,82.1 86.9,80 			"/>
		</g>
		<g>
			<polygon class="st2" points="115.7,81.5 115.7,88.2 112.7,90.8 109.6,90.8 111,88.4 110,84.5 			"/>
		</g>
		<g>
			<polygon class="st10" points="84.2,82.1 59.6,98.2 57.5,95.1 49.4,112.4 51.6,115.2 51.1,115.9 52.7,131.9 42.5,112.5 51.2,91.9 
				69.2,80.4 84.2,82 			"/>
		</g>
		<g>
			<polygon class="st3" points="59.7,76.8 69.2,80.4 34.7,102 27.2,110.9 29.8,101.2 37.6,90.5 			"/>
		</g>
		<g>
			<polygon class="st0" points="59.6,98.2 59.6,122.5 62.7,130.2 49.4,112.4 57.5,95.1 			"/>
		</g>
		<g>
			<polygon class="st2" points="32.1,90.6 25.7,95.8 25.7,99.2 			"/>
		</g>
		<g>
			<polygon class="st4" points="31,114.8 32.3,117.9 33.4,124.6 31,123.1 			"/>
		</g>
	</g>
</g>
</svg>
