<?xml version="1.0" encoding="UTF-8" standalone="no"?>
<!DOCTYPE svg PUBLIC "-//W3C//DTD SVG 1.1//EN" "http://www.w3.org/Graphics/SVG/1.1/DTD/svg11.dtd">
<svg version="1.1" xmlns="http://www.w3.org/2000/svg" xmlns:xlink="http://www.w3.org/1999/xlink" preserveAspectRatio="xMidYMid meet" viewBox="0 0 640 640" width="300" height="300"><defs><path d="M249.75 391.53L310.58 386.72L322.17 377.57L318.79 371.79L279.2 377.57L249.75 391.53Z" id="b1u95CLJn"></path><path d="M411.01 554.72L411.01 563.39L391.21 555.2L388.8 559.53L407.15 568.68L414.87 587.45L396.52 572.05L392.66 572.05L396.52 619.23L373.35 592.27L371.42 564.83L382.04 541.24L411.01 554.72Z" id="g2iLLoVoTF"></path><path d="M376.74 569.64L376.74 591.79L346.8 604.3L328.45 571.57L328.45 475.77L336.18 460.85L339.08 463.26L343.42 537.39L376.74 569.64Z" id="aJMxVzznB"></path><path d="M447.22 473.37L447.22 482.51L427.91 473.85L425.49 478.18L442.87 486.85L451.08 506.58L433.7 490.7L429.84 490.7L433.22 537.39L408.11 508.51L407.15 486.85L418.25 459.89L447.22 473.37Z" id="aqNjS0d0Q"></path><path d="M411.01 489.73L411.01 507.54L362.73 525.84L345.83 490.21L341.97 467.11L353.07 459.89L385.9 457.96L393.63 478.18L411.01 489.73Z" id="a1jE6UJvJT"></path><path d="M346.8 409.34L299 396.83L208.23 486.84L208.23 545.57L230.92 623.08L230.92 582.16L285 450.74L346.8 409.34Z" id="bdBVy8m7N"></path><path d="M440.94 412.71C437.15 415.86 418.16 431.58 383.97 459.89L353.07 459.89L447.22 398.27L499.37 398.27C468.21 405.97 448.73 410.79 440.94 412.71Z" id="b13GjMs3GR"></path><path d="M599.31 395.38L571.79 409.83L469.43 367.95L467.02 339.54L523.99 343.39L576.14 358.32L599.31 395.38Z" id="aDwOfE61t"></path><path d="M566.48 393.94L565.52 392.5L575.66 384.79L590.14 392.98L589.17 394.9L575.66 387.2L566.48 393.94Z" id="daHWHmJsZ"></path><path d="M460.26 325.58L460.26 388.64L418.25 372.76L336.17 330.88L350.66 298.14L460.26 325.58Z" id="f1iRMXzXWf"></path><path d="M438.05 260.6L439.5 215.35L487.3 309.22L438.05 260.6Z" id="b1AN1ujIkA"></path><path d="M439.98 201.39L207.74 3.06L242.02 97.41L377.21 227.38L469.43 327.51L439.98 201.39Z" id="dWzYropmJ"></path><path d="M288.86 196.09L377.22 227.38L196.64 53.12L204.37 99.81L288.86 196.09Z" id="a1pkgOZ1Y"></path><path d="M181.19 229.79L257.48 304.88L176.36 280.82L155.12 266.37L87.04 204.28L181.19 229.79Z" id="ck35CBwbw"></path><path d="M333.75 366.02L243.47 357.84L172.01 319.33L335.69 350.13L333.75 366.02Z" id="a25LzutC90"></path><path d="M273.4 379.98L217.88 362.17L337.14 366.5L453.5 376.13L467.02 401.16L438.05 395.87L374.8 390.09L328.93 372.76L309.62 383.35L273.4 379.98Z" id="hPyDh6H2a"></path><path d="M326.04 325.58L418.25 372.76L333.76 366.02L226.09 333.77L128.08 265.41L326.04 325.58Z" id="d5HqPpEYAq"></path><path d="M187.95 259.63L257.47 304.88L336.17 330.88L350.66 298.14L53.24 120.51L108.28 198.5L187.95 259.63Z" id="c4nOGQUcXP"></path><path d="M127.11 171.06L350.66 298.14L469.43 327.51L377.21 227.38L40.69 53.12L127.11 171.06Z" id="a7rFc5m3x"></path><path d="M460.26 325.58L469.43 327.51L469.43 329.43L523.99 343.39L476.68 350.13L514.34 366.02L476.68 366.98L536.06 390.57L571.79 409.82L573.72 418.01L517.23 398.27L467.02 398.27L460.26 388.16L460.26 325.58Z" id="c1T6prhUH3"></path><path d="M584.83 440.15L569.86 440.15L576.62 428.6L571.79 409.83L599.31 395.38L599.31 427.64L584.83 440.15Z" id="aziXPXRCD"></path><path d="M289.82 557.61L287.41 560.98L295.14 638L245.89 544.61L287.89 445.45L374.8 390.09L447.23 397.79L447.23 398.27L328.45 475.77L318.31 460.85L279.2 544.13L289.82 557.61Z" id="bwYJwnRb"></path><path d="M208.22 494.07L172.01 536.91L184.56 490.22L222.22 438.71L328.93 372.76L374.79 390.09L208.22 494.07Z" id="a6adN36tt"></path><path d="M328.45 592.75L343.42 629.82L279.2 544.13L318.31 460.85L328.45 475.77L328.45 592.75Z" id="aUK5ox44n"></path><path d="M164.77 480.59L195.67 439.19L164.77 464.22L164.77 480.59Z" id="f7BifxVlT"></path><path d="M201.95 602.86L190.36 595.64L190.36 555.68L196.64 570.6L201.95 602.86Z" id="dFynJrcyC"></path></defs><g><g><g><use xlink:href="#b1u95CLJn" opacity="1" fill="#acd2b4" fill-opacity="1"></use><g><use xlink:href="#b1u95CLJn" opacity="1" fill-opacity="0" stroke="#000000" stroke-width="1" stroke-opacity="0"></use></g></g><g><use xlink:href="#g2iLLoVoTF" opacity="1" fill="#3a3a3a" fill-opacity="1"></use><g><use xlink:href="#g2iLLoVoTF" opacity="1" fill-opacity="0" stroke="#000000" stroke-width="1" stroke-opacity="0"></use></g></g><g><use xlink:href="#aJMxVzznB" opacity="1" fill="#8fc19a" fill-opacity="1"></use><g><use xlink:href="#aJMxVzznB" opacity="1" fill-opacity="0" stroke="#000000" stroke-width="1" stroke-opacity="0"></use></g></g><g><use xlink:href="#aqNjS0d0Q" opacity="1" fill="#3a3a3a" fill-opacity="1"></use><g><use xlink:href="#aqNjS0d0Q" opacity="1" fill-opacity="0" stroke="#000000" stroke-width="1" stroke-opacity="0"></use></g></g><g><use xlink:href="#a1jE6UJvJT" opacity="1" fill="#678a6f" fill-opacity="1"></use><g><use xlink:href="#a1jE6UJvJT" opacity="1" fill-opacity="0" stroke="#000000" stroke-width="1" stroke-opacity="0"></use></g></g><g><use xlink:href="#bdBVy8m7N" opacity="1" fill="#3a3a3a" fill-opacity="1"></use><g><use xlink:href="#bdBVy8m7N" opacity="1" fill-opacity="0" stroke="#000000" stroke-width="1" stroke-opacity="0"></use></g></g><g><use xlink:href="#b13GjMs3GR" opacity="1" fill="#3a3a3a" fill-opacity="1"></use><g><use xlink:href="#b13GjMs3GR" opacity="1" fill-opacity="0" stroke="#000000" stroke-width="1" stroke-opacity="0"></use></g></g><g><use xlink:href="#aDwOfE61t" opacity="1" fill="#79a281" fill-opacity="1"></use><g><use xlink:href="#aDwOfE61t" opacity="1" fill-opacity="0" stroke="#000000" stroke-width="1" stroke-opacity="0"></use></g></g><g><use xlink:href="#daHWHmJsZ" opacity="1" fill="#3a3a3a" fill-opacity="1"></use><g><use xlink:href="#daHWHmJsZ" opacity="1" fill-opacity="0" stroke="#000000" stroke-width="1" stroke-opacity="0"></use></g></g><g><use xlink:href="#f1iRMXzXWf" opacity="1" fill="#8fc19a" fill-opacity="1"></use><g><use xlink:href="#f1iRMXzXWf" opacity="1" fill-opacity="0" stroke="#000000" stroke-width="1" stroke-opacity="0"></use></g></g><g><use xlink:href="#b1AN1ujIkA" opacity="1" fill="#7aa383" fill-opacity="1"></use><g><use xlink:href="#b1AN1ujIkA" opacity="1" fill-opacity="0" stroke="#000000" stroke-width="1" stroke-opacity="0"></use></g></g><g><use xlink:href="#dWzYropmJ" opacity="1" fill="#cce2d2" fill-opacity="1"></use><g><use xlink:href="#dWzYropmJ" opacity="1" fill-opacity="0" stroke="#000000" stroke-width="1" stroke-opacity="0"></use></g></g><g><use xlink:href="#a1pkgOZ1Y" opacity="1" fill="#acd2b4" fill-opacity="1"></use><g><use xlink:href="#a1pkgOZ1Y" opacity="1" fill-opacity="0" stroke="#000000" stroke-width="1" stroke-opacity="0"></use></g></g><g><use xlink:href="#ck35CBwbw" opacity="1" fill="#393839" fill-opacity="1"></use><g><use xlink:href="#ck35CBwbw" opacity="1" fill-opacity="0" stroke="#000000" stroke-width="1" stroke-opacity="0"></use></g></g><g><use xlink:href="#a25LzutC90" opacity="1" fill="#acd2b4" fill-opacity="1"></use><g><use xlink:href="#a25LzutC90" opacity="1" fill-opacity="0" stroke="#000000" stroke-width="1" stroke-opacity="0"></use></g></g><g><use xlink:href="#hPyDh6H2a" opacity="1" fill="#678a6f" fill-opacity="1"></use><g><use xlink:href="#hPyDh6H2a" opacity="1" fill-opacity="0" stroke="#000000" stroke-width="1" stroke-opacity="0"></use></g></g><g><use xlink:href="#d5HqPpEYAq" opacity="1" fill="#cce1d1" fill-opacity="1"></use><g><use xlink:href="#d5HqPpEYAq" opacity="1" fill-opacity="0" stroke="#000000" stroke-width="1" stroke-opacity="0"></use></g></g><g><use xlink:href="#c4nOGQUcXP" opacity="1" fill="#78a381" fill-opacity="1"></use><g><use xlink:href="#c4nOGQUcXP" opacity="1" fill-opacity="0" stroke="#000000" stroke-width="1" stroke-opacity="0"></use></g></g><g><use xlink:href="#a7rFc5m3x" opacity="1" fill="#393839" fill-opacity="1"></use><g><use xlink:href="#a7rFc5m3x" opacity="1" fill-opacity="0" stroke="#000000" stroke-width="1" stroke-opacity="0"></use></g></g><g><use xlink:href="#c1T6prhUH3" opacity="1" fill="#cce1d1" fill-opacity="1"></use><g><use xlink:href="#c1T6prhUH3" opacity="1" fill-opacity="0" stroke="#000000" stroke-width="1" stroke-opacity="0"></use></g></g><g><use xlink:href="#aziXPXRCD" opacity="1" fill="#3a3a3a" fill-opacity="1"></use><g><use xlink:href="#aziXPXRCD" opacity="1" fill-opacity="0" stroke="#000000" stroke-width="1" stroke-opacity="0"></use></g></g><g><use xlink:href="#bwYJwnRb" opacity="1" fill="#cde3d2" fill-opacity="1"></use><g><use xlink:href="#bwYJwnRb" opacity="1" fill-opacity="0" stroke="#000000" stroke-width="1" stroke-opacity="0"></use></g></g><g><use xlink:href="#a6adN36tt" opacity="1" fill="#8fc19a" fill-opacity="1"></use><g><use xlink:href="#a6adN36tt" opacity="1" fill-opacity="0" stroke="#000000" stroke-width="1" stroke-opacity="0"></use></g></g><g><use xlink:href="#aUK5ox44n" opacity="1" fill="#78a381" fill-opacity="1"></use><g><use xlink:href="#aUK5ox44n" opacity="1" fill-opacity="0" stroke="#000000" stroke-width="1" stroke-opacity="0"></use></g></g><g><use xlink:href="#f7BifxVlT" opacity="1" fill="#3a3a3a" fill-opacity="1"></use><g><use xlink:href="#f7BifxVlT" opacity="1" fill-opacity="0" stroke="#000000" stroke-width="1" stroke-opacity="0"></use></g></g><g><use xlink:href="#dFynJrcyC" opacity="1" fill="#678a6f" fill-opacity="1"></use><g><use xlink:href="#dFynJrcyC" opacity="1" fill-opacity="0" stroke="#000000" stroke-width="1" stroke-opacity="0"></use></g></g></g></g></svg>