<svg xmlns="http://www.w3.org/2000/svg" width="225.5" height="58.25" viewBox="0 0 225.5 58.25"><path fill="#FFF" d="M29.482 1C14.142 1 1.703 13.435 1.703 28.778c0 15.344 12.438 27.783 27.779 27.783 15.344 0 27.782-12.439 27.782-27.783C57.264 13.435 44.826 1 29.482 1zm14.982 16.077c-1.286.045-2.173-.722-2.215-1.891-.013-.429.097-.803.391-1.24.287-.561.348-.624.34-.87-.025-.735-1.136-.764-1.44-.749-4.17.137-5.269 5.766-6.16 10.342l-.436 2.413c2.4.351 4.105-.082 5.056-.697 1.339-.868-.374-1.761-.159-2.75.22-1.008 1.136-1.493 1.865-1.514 1.019-.024 1.747 1.032 1.724 2.105-.037 1.774-2.392 4.212-7.099 4.113a16.78 16.78 0 01-1.594-.113l-.888 4.903c-.796 3.713-1.853 8.786-5.632 13.212-3.248 3.86-6.542 4.46-8.018 4.51-2.76.093-4.591-1.378-4.657-3.343-.065-1.902 1.618-2.942 2.723-2.978 1.474-.05 2.493 1.017 2.532 2.249.037 1.041-.506 1.366-.865 1.564-.241.192-.603.39-.589.82.009.183.208.604.819.584 1.168-.039 1.942-.616 2.484-1.002 2.69-2.241 3.725-6.147 5.08-13.257l.284-1.724c.462-2.313.975-4.891 1.757-7.459-1.897-1.427-3.033-3.197-5.582-3.888-1.748-.475-2.814-.072-3.563.875-.887 1.122-.592 2.581.266 3.439l1.415 1.565c1.736 2.008 2.686 3.568 2.329 5.669-.565 3.352-4.561 5.924-9.283 4.473-4.031-1.242-4.785-4.097-4.301-5.67.427-1.384 1.526-1.645 2.602-1.314 1.151.354 1.602 1.753 1.272 2.83-.037.113-.096.306-.217.563-.133.297-.38.556-.488.903-.259.843.898 1.442 1.705 1.69 1.802.554 3.56-.389 4.008-1.848.415-1.342-.434-2.277-.786-2.637l-1.706-1.828c-.782-.871-2.501-3.296-1.662-6.021.322-1.049 1.002-2.165 1.991-2.901 2.085-1.554 4.352-1.81 6.511-1.19 2.794.806 4.137 2.653 5.878 4.08.973-2.857 2.323-5.655 4.354-8.014 1.833-2.152 4.297-3.707 7.12-3.805 2.82-.092 4.951 1.185 5.022 3.208.027.862-.469 2.537-2.188 2.593zm125.677 3.885c6.404 0 10.7 4.628 10.7 11.031 0 6.033-4.379 11.031-10.7 11.031-6.362 0-10.741-4.998-10.741-11.031-.001-6.402 4.294-11.031 10.741-11.031zm0 18.926c4.544 0 6.567-4.133 6.567-7.895 0-4.006-2.437-7.89-6.567-7.89-4.172 0-6.609 3.884-6.609 7.89-.001 3.762 2.023 7.895 6.609 7.895zm-11.274-16.965v-1.465h-5.578v-2.004c0-2.85.412-5.001 3.759-5.001.062 0 .126.005.189.007.007 0 .006-.01.015-.01.929.068 1.7-.688 1.754-1.616l.067-1.272c-.783-.124-1.614-.248-2.602-.248-5.743 0-7.066 3.347-7.066 8.47v1.674h-4.959v1.636c.127.848.852 1.5 1.738 1.5.004 0 .008.005.013.005h3.208v17.93h2.141l.005-.001c.89 0 1.618-.667 1.738-1.522V24.599h3.884a1.756 1.756 0 001.694-1.676zm-51.731-1.465c-.008 0-.01.004-.019.004-.82 0-1.611.562-1.957 1.323l-5.345 16.109h-.083l-5.227-16.102c-.341-.764-1.138-1.33-1.96-1.33-.009 0-.013-.004-.021-.004h-2.708l7.148 19.667c.249.703.745 1.777.745 2.231 0 .412-1.157 5.204-4.628 5.204-.084 0-.173-.01-.258-.015-.885-.049-1.554.57-1.703 1.522l-.105 1.344c.702.124 1.407.29 2.647.29 5.122 0 6.649-4.67 8.097-8.717l7.768-21.527h-2.391zm-24.688 4.28c-3.208-1.642-6.716-2.756-6.778-6.058.01-3.507 3.232-4.428 5.716-4.424.01-.003.021-.003.026-.003 1.078 0 1.94.107 2.783.292.01 0 .009-.013.024-.013.89.065 1.634-.631 1.74-1.508l.071-1.274c-1.628-.404-3.329-.609-4.81-.609-5.4.033-9.409 2.75-9.423 7.934.009 4.532 3.064 6.29 6.348 7.88 3.223 1.549 6.754 2.828 6.783 6.569-.019 3.902-3.786 5.341-6.381 5.346-1.518-.005-3.166-.384-4.553-.821-.871-.143-1.585.624-1.696 1.641l-.118 1.136c1.909.617 3.866 1.155 5.832 1.155h.026c6.046-.044 10.747-2.457 10.766-8.719-.011-4.833-3.086-6.863-6.356-8.524zm58.74 16.791l.004-.001c.839 0 1.537-.587 1.716-1.375V29.02c0-4.586-1.94-8.058-7.315-8.058-1.898 0-5.078 1.076-6.524 4.091-1.116-2.851-3.553-4.091-5.991-4.091-3.099 0-5.207 1.116-6.691 3.554h-.084v-1.311a1.762 1.762 0 00-1.76-1.743c-.008 0-.012-.004-.019-.004h-1.857v21.071h2.104l.003-.001c.974 0 1.763-.79 1.763-1.762 0-.026.008-.037.014-.054v-8.8c0-3.926 1.569-7.81 5.535-7.81 3.14 0 3.762 3.263 3.762 5.866v12.56h2.132l.007-.001c.918 0 1.66-.706 1.743-1.604v-9.011c0-3.926 1.571-7.81 5.536-7.81 3.14 0 3.761 3.263 3.761 5.866v12.56h2.161zm60.014 0l.007-.001c.945 0 1.709-.746 1.753-1.682V30.011c0-5.659-2.44-9.048-7.893-9.048-2.933 0-5.74 1.447-6.9 3.844h-.081v-1.574c0-.002-.003-.002-.003-.006 0-.976-.789-1.764-1.761-1.764-.01 0-.013-.004-.021-.004h-1.977V42.53h2.134l.007-.001c.923 0 1.672-.716 1.744-1.622V32.78c0-5.123 1.985-8.676 6.404-8.676 3.391.206 4.461 2.601 4.461 7.519V42.53h2.126zm20.907-21.071c-.006 0-.01.004-.02.004-.818 0-1.612.562-1.955 1.323l-5.344 16.109h-.085l-5.228-16.102c-.342-.764-1.139-1.33-1.962-1.33-.006 0-.012-.004-.018-.004h-2.708l7.148 19.667c.249.703.747 1.777.747 2.231 0 .412-1.161 5.204-4.631 5.204-.087 0-.172-.01-.259-.015-.884-.049-1.552.57-1.701 1.522l-.105 1.344c.702.124 1.407.29 2.646.29 5.122 0 6.652-4.67 8.099-8.717l7.768-21.527h-2.392z"/></svg>