<svg xmlns="http://www.w3.org/2000/svg" width="500" height="500"><path d="M50 500c-27.614 0-50-22.386-50-50V50C0 22.386 22.386 0 50 0h400c27.615 0 50 22.386 50 50v219.224l-84.141-84.141-17.678 17.678 101.818 101.818v35.355L380.503 220.438l-17.678 17.678L499.999 375.29v35.397L345.148 255.836l-17.677 17.677 172.528 172.528v3.961c0 27.614-22.385 50-50 50H340.381c4.128-39.908-9.142-81.331-39.788-111.978l-61.52-61.518-61.517-61.518c-24.497-24.498-24.568-64.143-.161-88.55 24.407-24.407 64.053-24.335 88.549.161l8.484 8.484V291.15l159.1-159.1H327.461l-8.484-8.484c-53.893-53.893-141.111-54.051-194.808-.354s-53.539 140.916.354 194.809l61.518 61.518 61.519 61.518c16.006 16.006 21.584 38.48 16.719 58.945zm0 0" fill="#4B86C2"/></svg>